<svg xmlns="http://www.w3.org/2000/svg" width="396.511" height="301.202" viewBox="0 0 396.511 301.202">
  <g id="Group_18301" data-name="Group 18301" transform="translate(-10708.271 7556.015)">
    <g id="Group_18300" data-name="Group 18300">
      <g id="Group_18299" data-name="Group 18299">
        <g id="Group_18298" data-name="Group 18298">
          <g id="Group_16832" data-name="Group 16832" transform="translate(10683.271 -7555.414)">
            <g id="Group_16755" data-name="Group 16755" transform="translate(44.989 71.594)">
              <g id="Group_16746" data-name="Group 16746" transform="translate(0)">
                <g id="Group_16745" data-name="Group 16745" transform="translate(93.499 16.371)">
                  <path id="Path_229" data-name="Path 229" d="M590.152,584.318l-31.51-37.9-31.51,37.9v146.76" transform="translate(-527.133 -546.384)" fill="rgba(0,0,0,0)" stroke="#e0e2e9" stroke-miterlimit="10" stroke-width="1.202"/>
                  <g id="Group_16744" data-name="Group 16744" transform="translate(11.651 44.137)">
                    <g id="Group_16740" data-name="Group 16740" transform="translate(0)" opacity="0.81">
                      <rect id="Rectangle_5014" data-name="Rectangle 5014" width="8.467" height="8.428" fill="rgba(0,0,0,0)" stroke="#e0e2e9" stroke-miterlimit="10" stroke-width="1.202"/>
                      <rect id="Rectangle_5015" data-name="Rectangle 5015" width="8.467" height="8.428" transform="translate(16.009)" fill="rgba(0,0,0,0)" stroke="#e0e2e9" stroke-miterlimit="10" stroke-width="1.202"/>
                      <rect id="Rectangle_5016" data-name="Rectangle 5016" width="8.467" height="8.428" transform="translate(32.017)" fill="rgba(0,0,0,0)" stroke="#e0e2e9" stroke-miterlimit="10" stroke-width="1.202"/>
                    </g>
                    <g id="Group_16741" data-name="Group 16741" transform="translate(0 19.579)" opacity="0.46">
                      <rect id="Rectangle_5017" data-name="Rectangle 5017" width="8.467" height="8.428" fill="rgba(0,0,0,0)" stroke="#e0e2e9" stroke-miterlimit="10" stroke-width="1.202"/>
                      <rect id="Rectangle_5018" data-name="Rectangle 5018" width="8.467" height="8.428" transform="translate(16.009)" fill="rgba(0,0,0,0)" stroke="#e0e2e9" stroke-miterlimit="10" stroke-width="1.202"/>
                      <rect id="Rectangle_5019" data-name="Rectangle 5019" width="8.467" height="8.428" transform="translate(32.017)" fill="rgba(0,0,0,0)" stroke="#e0e2e9" stroke-miterlimit="10" stroke-width="1.202"/>
                    </g>
                    <g id="Group_16742" data-name="Group 16742" transform="translate(0 39.982)" opacity="0.25">
                      <rect id="Rectangle_5020" data-name="Rectangle 5020" width="8.467" height="8.428" fill="rgba(0,0,0,0)" stroke="#e0e2e9" stroke-miterlimit="10" stroke-width="1.202"/>
                      <rect id="Rectangle_5021" data-name="Rectangle 5021" width="8.467" height="8.428" transform="translate(16.009)" fill="rgba(0,0,0,0)" stroke="#e0e2e9" stroke-miterlimit="10" stroke-width="1.202"/>
                      <rect id="Rectangle_5022" data-name="Rectangle 5022" width="8.467" height="8.428" transform="translate(32.017)" fill="rgba(0,0,0,0)" stroke="#e0e2e9" stroke-miterlimit="10" stroke-width="1.202"/>
                    </g>
                    <g id="Group_16743" data-name="Group 16743" transform="translate(0 57.514)" opacity="0.25">
                      <rect id="Rectangle_5023" data-name="Rectangle 5023" width="8.467" height="8.428" fill="rgba(0,0,0,0)" stroke="#e0e2e9" stroke-miterlimit="10" stroke-width="1.202"/>
                      <rect id="Rectangle_5024" data-name="Rectangle 5024" width="8.467" height="8.428" transform="translate(16.009)" fill="rgba(0,0,0,0)" stroke="#e0e2e9" stroke-miterlimit="10" stroke-width="1.202"/>
                      <rect id="Rectangle_5025" data-name="Rectangle 5025" width="8.467" height="8.428" transform="translate(32.017)" fill="rgba(0,0,0,0)" stroke="#e0e2e9" stroke-miterlimit="10" stroke-width="1.202"/>
                    </g>
                  </g>
                </g>
                <path id="Path_230" data-name="Path 230" d="M655.6,714.209V536.145H573.819V737.551" transform="translate(-573.819 -536.145)" fill="rgba(0,0,0,0)" stroke="#e0e2e9" stroke-miterlimit="10" stroke-width="1.202"/>
              </g>
              <g id="Group_16753" data-name="Group 16753" transform="translate(268.946 66.191)">
                <g id="Group_16752" data-name="Group 16752" transform="translate(0 18.813)">
                  <path id="Path_251" data-name="Path 251" d="M430,705.516V625.067a47.975,47.975,0,0,1,11.131-30.715h0a13.559,13.559,0,0,1,20.811,0h0a47.977,47.977,0,0,1,11.133,30.715v80.6" transform="translate(-430.002 -589.486)" fill="rgba(0,0,0,0)" stroke="#e0e2e9" stroke-miterlimit="10" stroke-width="1.202"/>
                  <g id="Group_16751" data-name="Group 16751" transform="translate(7.443 22.538)">
                    <g id="Group_16747" data-name="Group 16747" transform="translate(0 0)" opacity="0.81">
                      <rect id="Rectangle_5026" data-name="Rectangle 5026" width="5.786" height="5.76" transform="translate(21.882)" fill="rgba(0,0,0,0)" stroke="#e0e2e9" stroke-miterlimit="10" stroke-width="1.202"/>
                      <rect id="Rectangle_5027" data-name="Rectangle 5027" width="5.786" height="5.76" transform="translate(10.941)" fill="rgba(0,0,0,0)" stroke="#e0e2e9" stroke-miterlimit="10" stroke-width="1.202"/>
                      <rect id="Rectangle_5028" data-name="Rectangle 5028" width="5.786" height="5.76" fill="rgba(0,0,0,0)" stroke="#e0e2e9" stroke-miterlimit="10" stroke-width="1.202"/>
                    </g>
                    <g id="Group_16748" data-name="Group 16748" transform="translate(0 13.381)" opacity="0.46">
                      <rect id="Rectangle_5029" data-name="Rectangle 5029" width="5.786" height="5.76" transform="translate(21.882 0)" fill="rgba(0,0,0,0)" stroke="#e0e2e9" stroke-miterlimit="10" stroke-width="1.202"/>
                      <rect id="Rectangle_5030" data-name="Rectangle 5030" width="5.786" height="5.76" transform="translate(10.941 0)" fill="rgba(0,0,0,0)" stroke="#e0e2e9" stroke-miterlimit="10" stroke-width="1.202"/>
                      <rect id="Rectangle_5031" data-name="Rectangle 5031" width="5.786" height="5.76" transform="translate(0 0)" fill="rgba(0,0,0,0)" stroke="#e0e2e9" stroke-miterlimit="10" stroke-width="1.202"/>
                    </g>
                    <g id="Group_16749" data-name="Group 16749" transform="translate(0 27.325)" opacity="0.25">
                      <rect id="Rectangle_5032" data-name="Rectangle 5032" width="5.786" height="5.76" transform="translate(21.882 0)" fill="rgba(0,0,0,0)" stroke="#e0e2e9" stroke-miterlimit="10" stroke-width="1.202"/>
                      <rect id="Rectangle_5033" data-name="Rectangle 5033" width="5.786" height="5.76" transform="translate(10.941 0)" fill="rgba(0,0,0,0)" stroke="#e0e2e9" stroke-miterlimit="10" stroke-width="1.202"/>
                      <rect id="Rectangle_5034" data-name="Rectangle 5034" width="5.786" height="5.76" transform="translate(0 0)" fill="rgba(0,0,0,0)" stroke="#e0e2e9" stroke-miterlimit="10" stroke-width="1.202"/>
                    </g>
                    <g id="Group_16750" data-name="Group 16750" transform="translate(0 39.307)" opacity="0.25">
                      <rect id="Rectangle_5035" data-name="Rectangle 5035" width="5.786" height="5.76" transform="translate(21.882 0)" fill="rgba(0,0,0,0)" stroke="#e0e2e9" stroke-miterlimit="10" stroke-width="1.202"/>
                      <rect id="Rectangle_5036" data-name="Rectangle 5036" width="5.786" height="5.76" transform="translate(10.941 0)" fill="rgba(0,0,0,0)" stroke="#e0e2e9" stroke-miterlimit="10" stroke-width="1.202"/>
                      <rect id="Rectangle_5037" data-name="Rectangle 5037" width="5.786" height="5.76" transform="translate(0 0)" fill="rgba(0,0,0,0)" stroke="#e0e2e9" stroke-miterlimit="10" stroke-width="1.202"/>
                    </g>
                  </g>
                </g>
                <path id="Path_252" data-name="Path 252" d="M445.983,712.894V577.68H390.088V712.7" transform="translate(-339.007 -577.68)" fill="rgba(0,0,0,0)" stroke="#e0e2e9" stroke-miterlimit="10" stroke-width="1.202"/>
              </g>
              <g id="Group_16760" data-name="Group 16760" transform="translate(325.817 71.44)">
                <path id="Path_253" data-name="Path 253" d="M417.071,586.912v7.1h7.1V580.974h-7.1Zm1.168-4.77h4.77v4.77h-4.77Zm0,5.938h4.77v4.768h-4.77Z" transform="translate(-417.071 -580.974)" fill="#e0e2e9"/>
                <path id="Path_254" data-name="Path 254" d="M409.207,586.912v7.1h7.106V580.974h-7.106Zm1.168-4.77h4.77v4.77h-4.77Zm0,5.938h4.77v4.768h-4.77Z" transform="translate(-396.676 -580.974)" fill="#e0e2e9"/>
                <path id="Path_255" data-name="Path 255" d="M401.56,586.912v7.1h7.1V580.974h-7.1Zm1.168-4.77h4.77v4.77h-4.77Zm0,5.938h4.77v4.768h-4.77Z" transform="translate(-376.841 -580.974)" fill="#e0e2e9"/>
                <path id="Path_256" data-name="Path 256" d="M394.361,580.974v13.042h7.1V580.974Zm5.936,11.874h-4.77V588.08h4.77Zm0-5.936h-4.77v-4.77h4.77Z" transform="translate(-358.17 -580.974)" fill="#e0e2e9"/>
                <path id="Path_257" data-name="Path 257" d="M417.071,597.922v7.1h7.1V591.984h-7.1Zm1.168-4.77h4.77v4.77h-4.77Zm0,5.936h4.77v4.77h-4.77Z" transform="translate(-417.071 -574.438)" fill="#e0e2e9"/>
                <path id="Path_258" data-name="Path 258" d="M409.207,597.922v7.1h7.106V591.984h-7.106Zm1.168-4.77h4.77v4.77h-4.77Zm0,5.936h4.77v4.77h-4.77Z" transform="translate(-396.676 -574.438)" fill="#e0e2e9"/>
                <path id="Path_259" data-name="Path 259" d="M401.56,597.922v7.1h7.1V591.984h-7.1Zm1.168-4.77h4.77v4.77h-4.77Zm0,5.936h4.77v4.77h-4.77Z" transform="translate(-376.841 -574.438)" fill="#e0e2e9"/>
                <path id="Path_260" data-name="Path 260" d="M394.361,597.922v7.1h7.1V591.984h-7.1Zm1.167-4.77h4.77v4.77h-4.77Zm0,5.936h4.77v4.77h-4.77Z" transform="translate(-358.17 -574.438)" fill="#e0e2e9"/>
                <path id="Path_261" data-name="Path 261" d="M417.071,608.93v7.1h7.1V602.994h-7.1Zm1.168-4.77h4.77v4.77h-4.77Zm0,5.938h4.77v4.77h-4.77Z" transform="translate(-417.071 -567.902)" fill="#e0e2e9"/>
                <path id="Path_262" data-name="Path 262" d="M409.207,608.93v7.1h7.106V602.994h-7.106Zm1.168-4.77h4.77v4.77h-4.77Zm0,5.938h4.77v4.77h-4.77Z" transform="translate(-396.676 -567.902)" fill="#e0e2e9"/>
                <path id="Path_263" data-name="Path 263" d="M401.56,608.93v7.1h7.1V602.994h-7.1Zm1.168-4.77h4.77v4.77h-4.77Zm0,5.938h4.77v4.77h-4.77Z" transform="translate(-376.841 -567.902)" fill="#e0e2e9"/>
                <path id="Path_264" data-name="Path 264" d="M394.361,608.93v7.1h7.1V602.994h-7.1Zm1.167-4.77h4.77v4.77h-4.77Zm0,5.938h4.77v4.77h-4.77Z" transform="translate(-358.17 -567.902)" fill="#e0e2e9"/>
                <path id="Path_265" data-name="Path 265" d="M417.071,619.941v7.1h7.1V614h-7.1Zm1.168-4.77h4.77v4.77h-4.77Zm0,5.936h4.77v4.77h-4.77Z" transform="translate(-417.071 -561.367)" fill="#e0e2e9"/>
                <path id="Path_266" data-name="Path 266" d="M409.207,619.941v7.1h7.106V614h-7.106Zm1.168-4.77h4.77v4.77h-4.77Zm0,5.936h4.77v4.77h-4.77Z" transform="translate(-396.676 -561.367)" fill="#e0e2e9"/>
                <path id="Path_267" data-name="Path 267" d="M401.56,619.941v7.1h7.1V614h-7.1Zm1.168-4.77h4.77v4.77h-4.77Zm0,5.936h4.77v4.77h-4.77Z" transform="translate(-376.841 -561.367)" fill="#e0e2e9"/>
                <path id="Path_268" data-name="Path 268" d="M394.361,619.941v7.1h7.1V614h-7.1Zm1.167-4.77h4.77v4.77h-4.77Zm0,5.936h4.77v4.77h-4.77Z" transform="translate(-358.17 -561.367)" fill="#e0e2e9"/>
                <path id="Path_269" data-name="Path 269" d="M417.071,630.949v7.106h7.1V625.013h-7.1Zm1.168-4.768h4.77v4.768h-4.77Zm0,5.936h4.77v4.77h-4.77Z" transform="translate(-417.071 -554.832)" fill="#e0e2e9"/>
                <path id="Path_270" data-name="Path 270" d="M409.207,630.949v7.106h7.106V625.013h-7.106Zm1.168-4.768h4.77v4.768h-4.77Zm0,5.936h4.77v4.77h-4.77Z" transform="translate(-396.676 -554.832)" fill="#e0e2e9"/>
                <path id="Path_271" data-name="Path 271" d="M401.56,630.949v7.106h7.1V625.013h-7.1Zm1.168-4.768h4.77v4.768h-4.77Zm0,5.936h4.77v4.77h-4.77Z" transform="translate(-376.841 -554.832)" fill="#e0e2e9"/>
                <path id="Path_272" data-name="Path 272" d="M394.361,630.949v7.106h7.1V625.013h-7.1Zm1.167-4.768h4.77v4.768h-4.77Zm0,5.936h4.77v4.77h-4.77Z" transform="translate(-358.17 -554.832)" fill="#e0e2e9"/>
              </g>
              <g id="Group_16761" data-name="Group 16761" transform="translate(9.961 7.684)">
                <path id="Path_231" data-name="Path 231" d="M589.291,549.655v10.394H578.9V540.967h10.4Zm-1.708-6.98H580.6v6.98h6.98Zm0,8.687H580.6v6.98h6.98Z" transform="translate(-525.942 -540.967)" fill="#e0e2e9"/>
                <path id="Path_232" data-name="Path 232" d="M600.8,549.655v10.394H590.4V540.967h10.4Zm-1.707-6.98h-6.98v6.98h6.98Zm0,8.687h-6.98v6.98h6.98Z" transform="translate(-555.784 -540.967)" fill="#e0e2e9"/>
                <path id="Path_233" data-name="Path 233" d="M611.987,549.655v10.394h-10.4V540.967h10.4Zm-1.708-6.98H603.3v6.98h6.979Zm0,8.687H603.3v6.98h6.979Z" transform="translate(-584.806 -540.967)" fill="#e0e2e9"/>
                <path id="Path_234" data-name="Path 234" d="M622.52,540.967v19.082h-10.4V540.967Zm-8.687,17.375h6.979v-6.98h-6.979Zm0-8.687h6.979v-6.98h-6.979Z" transform="translate(-612.125 -540.967)" fill="#e0e2e9"/>
                <path id="Path_235" data-name="Path 235" d="M589.291,565.764v10.4H578.9V557.077h10.4Zm-1.708-6.979H580.6v6.979h6.98Zm0,8.685H580.6v6.98h6.98Z" transform="translate(-525.942 -531.404)" fill="#e0e2e9"/>
                <path id="Path_236" data-name="Path 236" d="M600.8,565.764v10.4H590.4V557.077h10.4Zm-1.707-6.979h-6.98v6.979h6.98Zm0,8.685h-6.98v6.98h6.98Z" transform="translate(-555.784 -531.404)" fill="#e0e2e9"/>
                <path id="Path_237" data-name="Path 237" d="M611.987,565.764v10.4h-10.4V557.077h10.4Zm-1.708-6.979H603.3v6.979h6.979Zm0,8.685H603.3v6.98h6.979Z" transform="translate(-584.806 -531.404)" fill="#e0e2e9"/>
                <path id="Path_238" data-name="Path 238" d="M622.52,565.764v10.4h-10.4V557.077h10.4Zm-1.708-6.979h-6.979v6.979h6.979Zm0,8.685h-6.979v6.98h6.979Z" transform="translate(-612.125 -531.404)" fill="#e0e2e9"/>
                <path id="Path_239" data-name="Path 239" d="M589.291,581.873v10.4H578.9V573.186h10.4Zm-1.708-6.98H580.6v6.98h6.98Zm0,8.688H580.6v6.98h6.98Z" transform="translate(-525.942 -521.841)" fill="#e0e2e9"/>
                <path id="Path_240" data-name="Path 240" d="M600.8,581.873v10.4H590.4V573.186h10.4Zm-1.707-6.98h-6.98v6.98h6.98Zm0,8.688h-6.98v6.98h6.98Z" transform="translate(-555.784 -521.841)" fill="#e0e2e9"/>
                <path id="Path_241" data-name="Path 241" d="M611.987,581.873v10.4h-10.4V573.186h10.4Zm-1.708-6.98H603.3v6.98h6.979Zm0,8.688H603.3v6.98h6.979Z" transform="translate(-584.806 -521.841)" fill="#e0e2e9"/>
                <path id="Path_242" data-name="Path 242" d="M622.52,581.873v10.4h-10.4V573.186h10.4Zm-1.708-6.98h-6.979v6.98h6.979Zm0,8.688h-6.979v6.98h6.979Z" transform="translate(-612.125 -521.841)" fill="#e0e2e9"/>
                <path id="Path_243" data-name="Path 243" d="M589.291,597.983v10.394H578.9V589.3h10.4ZM587.583,591H580.6v6.98h6.98Zm0,8.688H580.6v6.979h6.98Z" transform="translate(-525.942 -512.279)" fill="#e0e2e9"/>
                <path id="Path_244" data-name="Path 244" d="M600.8,597.983v10.394H590.4V589.3h10.4ZM599.09,591h-6.98v6.98h6.98Zm0,8.688h-6.98v6.979h6.98Z" transform="translate(-555.784 -512.279)" fill="#e0e2e9"/>
                <path id="Path_245" data-name="Path 245" d="M611.987,597.983v10.394h-10.4V589.3h10.4ZM610.279,591H603.3v6.98h6.979Zm0,8.688H603.3v6.979h6.979Z" transform="translate(-584.806 -512.279)" fill="#e0e2e9"/>
                <path id="Path_246" data-name="Path 246" d="M622.52,597.983v10.394h-10.4V589.3h10.4ZM620.812,591h-6.979v6.98h6.979Zm0,8.688h-6.979v6.979h6.979Z" transform="translate(-612.125 -512.279)" fill="#e0e2e9"/>
                <path id="Path_247" data-name="Path 247" d="M589.291,614.092v10.4H578.9V605.4h10.4Zm-1.708-6.979H580.6v6.979h6.98Zm0,8.685H580.6v6.98h6.98Z" transform="translate(-525.942 -502.715)" fill="#e0e2e9"/>
                <path id="Path_248" data-name="Path 248" d="M600.8,614.092v10.4H590.4V605.4h10.4Zm-1.707-6.979h-6.98v6.979h6.98Zm0,8.685h-6.98v6.98h6.98Z" transform="translate(-555.784 -502.715)" fill="#e0e2e9"/>
                <path id="Path_249" data-name="Path 249" d="M611.987,614.092v10.4h-10.4V605.4h10.4Zm-1.708-6.979H603.3v6.979h6.979Zm0,8.685H603.3v6.98h6.979Z" transform="translate(-584.806 -502.715)" fill="#e0e2e9"/>
                <path id="Path_250" data-name="Path 250" d="M622.52,614.092v10.4h-10.4V605.4h10.4Zm-1.708-6.979h-6.979v6.979h6.979Zm0,8.685h-6.979v6.98h6.979Z" transform="translate(-612.125 -502.715)" fill="#e0e2e9"/>
              </g>
            </g>
            <g id="Group_16795" data-name="Group 16795" transform="translate(25)">
              <path id="Path_319" data-name="Path 319" d="M431.122,625.4,481.9,698.921l56,.2v-1.031a9.447,9.447,0,0,0-8.808-9.422l-15.462-1.029L468.586,606.29a32.5,32.5,0,0,0-46.329-11.871l-.39.25-25.936,16.4,18.406,44.351,23.367-20.5" transform="translate(-179.313 -491.037)" fill="#fff"/>
              <g id="Group_16757" data-name="Group 16757" transform="translate(80.29 28.777)">
                <path id="Path_273" data-name="Path 273" d="M488.207,569.873s1.267,17.256,20.381,15.662c0,0-6.693,17.171-11.5,20.208l-24.14,15.278-5.774-27.03Z" transform="translate(-337.603 -529.807)" fill="#071450"/>
                <path id="Path_275" data-name="Path 275" d="M489.291,681.987c4.658,12.961,13.176,15.063,23.142,14.4,5.211-6.834,11.387-16.116,16.377-23.089q8.711-12.162,17.437-24.3c1.484-2.078,2.967-4.144,4.464-6.224v31.161a34.578,34.578,0,0,0,.318,4.811c28.388,24.257,68.934-6.182,74.465-10.576h.013c.415-.32.623-.5.623-.5,2.647-19.2-.212-33.711-.822-44.691-.832-14.665-3.548-19.327-5.96-23.831l-1-2.529a46.321,46.321,0,0,1-2.045-4.528c-.015-.013.079-.639.079-.639s-.974-1.094-.974-1.122c-5.474-9.037-9.7-16.6-18.762-22.019,3.16,2.316,5.308,7.915,1.983,10.978-3.868,3.563-9.134-.651-12.309-3.118a49.461,49.461,0,0,1-10.549-10.881c-.928-1.331-2.093-2.773-1.912-4.492-6.571-.1-12.128,2.232-18.907,6.155A53.176,53.176,0,0,0,534.9,588.144Z" transform="translate(-489.291 -534.293)" fill="#071450"/>
                <ellipse id="Ellipse_292" data-name="Ellipse 292" cx="1.733" cy="1.473" rx="1.733" ry="1.473" transform="translate(113.413 3.997) rotate(-101.868)" fill="#071450"/>
              </g>
              <g id="Group_16758" data-name="Group 16758" transform="translate(156.341 2.771)">
                <path id="Path_276" data-name="Path 276" d="M506.966,560.582l-.013.126a9.878,9.878,0,0,0,9.855,9.894,9.613,9.613,0,0,0,4.782-1.253,8.105,8.105,0,0,0,1.192-.765,1.236,1.236,0,0,0-.152-2.018,10.026,10.026,0,0,1-4.6-5.22,5.342,5.342,0,0,1-.208-2.1,5.158,5.158,0,0,1,2.855-4.287,3.27,3.27,0,0,1,.79-.2c.762-.125,1.788-.111,2.023.446a13.41,13.41,0,0,1-.817-8.559,11.977,11.977,0,0,1,2.4-4.83,3.454,3.454,0,0,0,3.979,3.536,4.947,4.947,0,0,0,4.325-4.259c.013.028.027.042.027.069,2.051,4.121,7.028,3.828,10.424,1.643a10,10,0,0,0,3.022-2.935c.651-4.454-3.285-8.379-7.472-8.643-.318-2.769-2.579-5.582-5.323-5.582a5.327,5.327,0,0,0-4.67,2.757,3.365,3.365,0,0,0-.194.4c-1.248-1.532-3.217-3.161-5.171-3.161a6.6,6.6,0,0,0-6.224,4.454c0-.193-1.788-.834-1.968-.89a7.659,7.659,0,0,0-2.245-.306,7.894,7.894,0,0,0-6.542,3.813,6.765,6.765,0,0,0-.1,1.2,7.661,7.661,0,0,0,.817,3.452,5.059,5.059,0,0,0-1.663,1.016,5.3,5.3,0,0,0-1.8,3.591v.013c-.013.14-.013.277-.013.417a5.285,5.285,0,0,0,.887,2.951,7.877,7.877,0,0,0-4.977,6.041,8.448,8.448,0,0,0-.111,1.335A7.9,7.9,0,0,0,506.966,560.582Z" transform="translate(-500.077 -525.649)" fill="#00c4dd"/>
                <path id="Path_278" data-name="Path 278" d="M467.12,727.566h63.736v-1.239a9.45,9.45,0,0,0-9.066-9.464l-15.04-.612H471.238Z" transform="translate(-434.777 -430.337)" fill="#00c4dd"/>
                <path id="Path_279" data-name="Path 279" d="M403.379,666.2l55.778-.14v-1.239a9.45,9.45,0,0,0-9.064-9.464l-15.04-.612-39.121.627Z" transform="translate(-256.72 -461.093)" fill="#00c4dd"/>
                <path id="Path_290" data-name="Path 290" d="M453.481,590.3h0a4.451,4.451,0,0,0,4.251-3.152L462,573.936l3.766-12.476,4.9-16.066a4.089,4.089,0,0,0-4.023-5.289h0a4.078,4.078,0,0,0-3.75,2.823l-6.765,20.855-6.878,20.662A4.464,4.464,0,0,0,453.481,590.3Z" transform="translate(-347.743 -518.421)" fill="#00c4dd"/>
              </g>
              <g id="Group_16756" data-name="Group 16756">
                <path id="Path_438" data-name="Path 438" d="M45.457,206.549l3.957-5.4,5.048-2.857,7.458-.886,5.537-1.666,4.162-3.319,2.921-5.437,5.789-11.795s2.6,18.57,23.177,15.534c.225.192-8.279,9.686-8.279,9.686l-5.694,4.422L72.8,202.7v-1.546l-8.046,3.683Z" fill="#fff"/>
                <path id="Path_280" data-name="Path 280" d="M563.235,685.419H533.521a38.585,38.585,0,0,1-38.145-33.636,34.73,34.73,0,0,1-.319-4.83V615.668" transform="translate(-353.331 -477.857)" fill="rgba(0,0,0,0)" stroke="#6a7296" stroke-miterlimit="10" stroke-width="1.202"/>
                <path id="Path_281" data-name="Path 281" d="M470.424,632.267l17.41.6h.293l10.993.222a36.6,36.6,0,0,1,32.3,52.593l-32.511,72.562,15.1.612a9.467,9.467,0,0,1,9.1,9.463v1.239H459.123l4.134-11.315,29.733-81.234" transform="translate(-271.305 -469.557)" fill="rgba(0,0,0,0)" stroke="#6a7296" stroke-miterlimit="10" stroke-width="1.202"/>
                <line id="Line_33" data-name="Line 33" x2="50.783" y2="73.523" transform="translate(251.809 134.36)" fill="none" stroke="#6a7296" stroke-miterlimit="10" stroke-width="1.202"/>
                <line id="Line_34" data-name="Line 34" y1="20.5" x2="23.367" transform="translate(235.025 143.879)" fill="none" stroke="#6a7296" stroke-miterlimit="10" stroke-width="1.202"/>
                <line id="Line_35" data-name="Line 35" y1="0.139" x2="0.153" transform="translate(185.829 207.396)" fill="none" stroke="#6a7296" stroke-miterlimit="10" stroke-width="1.202"/>
                <line id="Line_36" data-name="Line 36" y1="31.077" x2="15.169" transform="translate(242.554 72.555)" fill="none" stroke="#6a7296" stroke-miterlimit="10" stroke-width="1.202"/>
                <path id="Path_282" data-name="Path 282" d="M587.711,662.095c-.013.029-.027.042-.042.071h12.846" transform="translate(-529.529 -454.644)" fill="rgba(0,0,0,0)" stroke="#6a7296" stroke-miterlimit="10" stroke-width="1.202"/>
                <path id="Path_283" data-name="Path 283" d="M497.32,662.253c.014-.069.042-.14.056-.2" transform="translate(-290.866 -454.662)" fill="rgba(0,0,0,0)" stroke="#6a7296" stroke-miterlimit="10" stroke-width="1.202"/>
                <path id="Path_284" data-name="Path 284" d="M644.523,561.066a31,31,0,0,0-13.833,2.824,54.225,54.225,0,0,0-24.077,22.059c-6.138,10.7-11.106,22.252-16.561,33.3q-10.249,20.813-20.528,41.612-4.948,10.042-9.909,20.082l-7,14.181a16.1,16.1,0,0,1-5.886,5.679,16.293,16.293,0,0,1-7.905,2.059,14.539,14.539,0,0,0-13.194,8.42l-.612,1.321h16.9" transform="translate(-479.561 -505.161)" fill="rgba(0,0,0,0)" stroke="#6a7296" stroke-miterlimit="10" stroke-width="1.202"/>
                <path id="Path_285" data-name="Path 285" d="M518.027,666.006c1.983-12.727,1.566-25.54.563-38.335-1.792-22.873-8.755-45.789-27.408-60.587-.481-.382-.967-.761-1.473-1.11" transform="translate(-301.502 -502.704)" fill="rgba(0,0,0,0)" stroke="#6a7296" stroke-miterlimit="10" stroke-width="1.202"/>
                <path id="Path_286" data-name="Path 286" d="M588.912,662.095" transform="translate(-519.791 -454.644)" fill="rgba(0,0,0,0)" stroke="#6a7296" stroke-miterlimit="10" stroke-width="1.202"/>
                <path id="Path_287" data-name="Path 287" d="M622.168,581.312c.348,13.471-11.148,27.124-11.148,27.124s-.027.027-.027.042q-8.748,12.17-17.466,24.368c-1.5,2.088-2.993,4.162-4.482,6.249q-8.766,12.193-17.507,24.4c-5.01,7-9.687,14.349-14.919,21.21-1.35,1.767-2.728,3.494-4.176,5.178a44.149,44.149,0,0,1-6.012,6.36c-2.31,1.794-4.871,3.367-7.181,5.2a23.352,23.352,0,0,0-4.969,5.762c-1.446,2.476-1.6,5.274-2.838,7.751-2.172,4.371-7.53,3.646-9.366-.528-2.547-5.79,3.019-18.315,3.019-18.315" transform="translate(-451.801 -495.035)" fill="rgba(0,0,0,0)" stroke="#6a7296" stroke-miterlimit="10" stroke-width="1.202"/>
                <line id="Line_37" data-name="Line 37" x2="70.986" transform="translate(0 207.522)" fill="none" stroke="#6a7296" stroke-miterlimit="10" stroke-width="1.202"/>
                <path id="Path_288" data-name="Path 288" d="M395.931,611.066l25.936-16.4.39-.25a32.5,32.5,0,0,1,46.329,11.871l45.049,81.345,15.462,1.029a9.447,9.447,0,0,1,8.808,9.422v1.031" transform="translate(-179.313 -491.037)" fill="rgba(0,0,0,0)" stroke="#6a7296" stroke-miterlimit="10" stroke-width="1.202"/>
                <path id="Path_289" data-name="Path 289" d="M510.612,560.127c-2.142.419-2.95.279-4.494.585a.553.553,0,0,1-.46-.96l5.122-4.955a8.358,8.358,0,0,0,2.755-4.62l.042-.182a3.568,3.568,0,0,0-2.631-2.491,5.7,5.7,0,0,0-3.214.419c-1.669.654-3.911,1.237-6.041,1.975a13.022,13.022,0,0,0-6.985,5.817l-.2.348a220.054,220.054,0,0,1-20.973,30.256L456.9,606.777" transform="translate(-246.446 -511.983)" fill="rgba(0,0,0,0)" stroke="#6a7296" stroke-miterlimit="10" stroke-width="1.202"/>
                <path id="Path_291" data-name="Path 291" d="M453.5,590.294h0a4.467,4.467,0,0,0,4.268-3.151l4.284-13.208,3.782-12.476,4.923-16.065a4.092,4.092,0,0,0-4.039-5.289h0a4.092,4.092,0,0,0-3.765,2.823l-6.792,20.855-6.906,20.661A4.466,4.466,0,0,0,453.5,590.294Z" transform="translate(-191.992 -515.639)" fill="rgba(0,0,0,0)" stroke="#6a7296" stroke-miterlimit="10" stroke-width="1.202"/>
                <path id="Path_292" data-name="Path 292" d="M451.72,563.229c0-.013.014,0,.014,0a5.707,5.707,0,0,0,2.992-.988,4.5,4.5,0,0,0,.836-6.4,5.275,5.275,0,0,0-2.589-1.739,6.167,6.167,0,0,0-4.008.056,6.5,6.5,0,0,0-3.186,2.98" transform="translate(-172.704 -508.794)" fill="rgba(0,0,0,0)" stroke="#6a7296" stroke-miterlimit="10" stroke-width="1.202"/>
                <path id="Path_293" data-name="Path 293" d="M453.174,568.96a5.731,5.731,0,0,0,3.03-.912,4.514,4.514,0,0,0,1.013-6.378,5.317,5.317,0,0,0-2.557-1.806,6.138,6.138,0,0,0-3.995-.045,5.565,5.565,0,0,0-3.193,2.447" transform="translate(-176.816 -505.938)" fill="rgba(0,0,0,0)" stroke="#6a7296" stroke-miterlimit="10" stroke-width="1.202"/>
                <path id="Path_294" data-name="Path 294" d="M452.579,567.285a5.664,5.664,0,0,1,6.85-1.764,4.91,4.91,0,0,1,2.175,1.84,4.105,4.105,0,0,1-1.409,5.7l-.611.326a41.659,41.659,0,0,1-9.8,2.184" transform="translate(-184.403 -503.182)" fill="rgba(0,0,0,0)" stroke="#6a7296" stroke-miterlimit="10" stroke-width="1.202"/>
                <path id="Path_295" data-name="Path 295" d="M624.386,662.271c-1.7-.014-19.144-.014-20.856-.014-6.847-.027-13.737-.042-20.625-.055-34.112-.084-68.346-.139-99.452-.153" transform="translate(-397.076 -454.667)" fill="rgba(0,0,0,0)" stroke="#6a7296" stroke-miterlimit="10" stroke-width="1.202"/>
                <path id="Path_296" data-name="Path 296" d="M653.956,662.049c-10.383,0-16.158.014-25.537.014-15.309.029-29.087.07-40.777.126" transform="translate(-582.928 -454.667)" fill="rgba(0,0,0,0)" stroke="#6a7296" stroke-miterlimit="10" stroke-width="1.202"/>
                <path id="Path_297" data-name="Path 297" d="M468.978,662.8c-.6,0-46.666-.277-103.971-.514" transform="translate(-102.009 -454.546)" fill="rgba(0,0,0,0)" stroke="#6a7296" stroke-miterlimit="10" stroke-width="1.202"/>
                <path id="Path_298" data-name="Path 298" d="M507.337,560.794c-.182,1.726.988,3.174,1.92,4.51a49.667,49.667,0,0,0,10.592,10.925c3.188,2.476,8.475,6.708,12.359,3.13,3.34-3.075,1.182-8.7-1.991-11.022-.013-.013-.029-.013-.042-.027" transform="translate(-342.375 -505.294)" fill="rgba(0,0,0,0)" stroke="#6a7296" stroke-miterlimit="10" stroke-width="1.202"/>
                <path id="Path_299" data-name="Path 299" d="M507.991,535.949" transform="translate(-317.488 -517.717)" fill="rgba(0,0,0,0)" stroke="#6a7296" stroke-miterlimit="10" stroke-width="1.202"/>
                <path id="Path_300" data-name="Path 300" d="M510.777,541.091s-5.641.542-6.543,5.414" transform="translate(-314.639 -515.145)" fill="rgba(0,0,0,0)" stroke="#6a7296" stroke-miterlimit="10" stroke-width="1.202"/>
                <path id="Path_301" data-name="Path 301" d="M500.368,556.946a10.355,10.355,0,0,0,3.945-.13,1.55,1.55,0,0,0,.883-2.391c-1.339-1.892-2.712-3.763-4.188-5.548a1.579,1.579,0,0,1-.437-.825,36.009,36.009,0,0,0-1.5-10.359" transform="translate(-301.598 -516.845)" fill="rgba(0,0,0,0)" stroke="#6a7296" stroke-miterlimit="10" stroke-width="1.202"/>
                <path id="Path_302" data-name="Path 302" d="M523,564.095c2.071-6.018,3.027-9.092,3.027-9.092" transform="translate(-358.038 -508.189)" fill="rgba(0,0,0,0)" stroke="#6a7296" stroke-linecap="round" stroke-linejoin="round" stroke-width="1.202"/>
                <line id="Line_38" data-name="Line 38" x2="0.031" y2="20.762" transform="translate(187.797 53.893)" fill="none" stroke="#6a7296" stroke-miterlimit="10" stroke-width="1.202"/>
                <path id="Path_303" data-name="Path 303" d="M519.9,550.614s-1.449,11.943-7.242,14.205S501.1,560.1,501.1,560.1" transform="translate(-319.061 -510.384)" fill="rgba(0,0,0,0)" stroke="#6a7296" stroke-linecap="round" stroke-linejoin="round" stroke-width="1.202"/>
                <path id="Path_304" data-name="Path 304" d="M507.108,554.234a5.5,5.5,0,0,1-5.214.6" transform="translate(-307.46 -508.574)" fill="rgba(0,0,0,0)" stroke="#6a7296" stroke-linecap="round" stroke-linejoin="round" stroke-width="1.202"/>
                <path id="Path_305" data-name="Path 305" d="M504.4,529.165a5.26,5.26,0,0,1,.695-2.616,5.38,5.38,0,0,1,10.077,2.616" transform="translate(-319.287 -523.794)" fill="rgba(0,0,0,0)" stroke="#6a7296" stroke-linecap="round" stroke-miterlimit="10" stroke-width="1.202"/>
                <path id="Path_306" data-name="Path 306" d="M532.113,535.23a7.981,7.981,0,0,1,3.509-6.576c5.4-3.632,13.176,1.922,11.634,8.179a8.641,8.641,0,0,1-3.957,5.046c-3.408,2.185-8.406,2.485-10.458-1.643l-.031-.066a4.953,4.953,0,0,1-4.343,4.258,3.476,3.476,0,0,1-4-3.535,12.841,12.841,0,0,0-1.579,13.389c-.356-.791-2.3-.482-2.825-.248a5.367,5.367,0,0,0-2.665,6.378,10.124,10.124,0,0,0,4.62,5.231,1.229,1.229,0,0,1,.156,2.013,9.9,9.9,0,0,1-15.888-7.876l.013-.126a7.9,7.9,0,0,1-1.809-15.225,5.269,5.269,0,0,1-.891-2.95,5.369,5.369,0,0,1,3.494-5.037,5.294,5.294,0,0,1,1.893-.348" transform="translate(-344.034 -521.94)" fill="rgba(0,0,0,0)" stroke="#6a7296" stroke-linecap="round" stroke-linejoin="round" stroke-width="1.202"/>
                <path id="Path_307" data-name="Path 307" d="M534.463,526.389a5.289,5.289,0,0,0-4.691-2.595,6.606,6.606,0,0,0-6.249,4.467c.061-.18-1.794-.847-1.983-.9a7.709,7.709,0,0,0-2.256-.308,7.926,7.926,0,0,0-7.7,7.794,7.665,7.665,0,0,0,.821,3.452" transform="translate(-349.348 -523.794)" fill="rgba(0,0,0,0)" stroke="#6a7296" stroke-linecap="square" stroke-linejoin="round" stroke-width="1.202"/>
                <path id="Path_310" data-name="Path 310" d="M507.991,535.949" transform="translate(-317.488 -517.717)" fill="rgba(0,0,0,0)" stroke="#6a7296" stroke-miterlimit="10" stroke-width="1.202"/>
                <path id="Path_311" data-name="Path 311" d="M510.777,541.091s-5.641.542-6.543,5.414" transform="translate(-314.639 -515.145)" fill="rgba(0,0,0,0)" stroke="#6a7296" stroke-miterlimit="10" stroke-width="1.202"/>
                <path id="Path_312" data-name="Path 312" d="M500.368,556.946a10.355,10.355,0,0,0,3.945-.13,1.55,1.55,0,0,0,.883-2.391c-1.339-1.892-2.712-3.763-4.188-5.548a1.579,1.579,0,0,1-.437-.825,36.009,36.009,0,0,0-1.5-10.359" transform="translate(-301.598 -516.845)" fill="rgba(0,0,0,0)" stroke="#6a7296" stroke-miterlimit="10" stroke-width="1.202"/>
                <path id="Path_313" data-name="Path 313" d="M523,564.095c2.071-6.018,3.027-9.092,3.027-9.092" transform="translate(-358.038 -508.189)" fill="rgba(0,0,0,0)" stroke="#6a7296" stroke-linecap="round" stroke-linejoin="round" stroke-width="1.202"/>
                <line id="Line_39" data-name="Line 39" x2="0.031" y2="20.762" transform="translate(187.797 53.893)" fill="none" stroke="#6a7296" stroke-miterlimit="10" stroke-width="1.202"/>
                <path id="Path_314" data-name="Path 314" d="M519.9,550.614s-1.449,11.943-7.242,14.205S501.1,560.1,501.1,560.1" transform="translate(-319.061 -510.384)" fill="rgba(0,0,0,0)" stroke="#6a7296" stroke-linecap="round" stroke-linejoin="round" stroke-width="1.202"/>
                <path id="Path_315" data-name="Path 315" d="M507.108,554.234a5.5,5.5,0,0,1-5.214.6" transform="translate(-307.46 -508.574)" fill="rgba(0,0,0,0)" stroke="#6a7296" stroke-linecap="round" stroke-linejoin="round" stroke-width="1.202"/>
                <path id="Path_316" data-name="Path 316" d="M504.4,529.165a5.26,5.26,0,0,1,.695-2.616,5.38,5.38,0,0,1,10.077,2.616" transform="translate(-319.287 -523.794)" fill="rgba(0,0,0,0)" stroke="#6a7296" stroke-linecap="round" stroke-miterlimit="10" stroke-width="1.202"/>
                <path id="Path_317" data-name="Path 317" d="M532.113,535.23a7.981,7.981,0,0,1,3.509-6.576c5.4-3.632,13.176,1.922,11.634,8.179a8.641,8.641,0,0,1-3.957,5.046c-3.408,2.185-8.406,2.485-10.458-1.643l-.031-.066a4.953,4.953,0,0,1-4.343,4.258,3.476,3.476,0,0,1-4-3.535,12.841,12.841,0,0,0-1.579,13.389c-.356-.791-2.3-.482-2.825-.248a5.367,5.367,0,0,0-2.665,6.378,10.124,10.124,0,0,0,4.62,5.231,1.229,1.229,0,0,1,.156,2.013,9.9,9.9,0,0,1-15.888-7.876l.013-.126a7.9,7.9,0,0,1-1.809-15.225,5.269,5.269,0,0,1-.891-2.95,5.369,5.369,0,0,1,3.494-5.037,5.294,5.294,0,0,1,1.893-.348" transform="translate(-344.034 -521.94)" fill="rgba(0,0,0,0)" stroke="#6a7296" stroke-linecap="round" stroke-linejoin="round" stroke-width="1.202"/>
                <path id="Path_318" data-name="Path 318" d="M534.463,526.389a5.289,5.289,0,0,0-4.691-2.595,6.606,6.606,0,0,0-6.249,4.467c.061-.18-1.794-.847-1.983-.9a7.709,7.709,0,0,0-2.256-.308,7.926,7.926,0,0,0-7.7,7.794,7.665,7.665,0,0,0,.821,3.452" transform="translate(-349.348 -523.794)" fill="rgba(0,0,0,0)" stroke="#6a7296" stroke-linecap="square" stroke-linejoin="round" stroke-width="1.202"/>
              </g>
            </g>
          </g>
        </g>
      </g>
    </g>
  </g>
</svg>
