<svg xmlns="http://www.w3.org/2000/svg" width="353.628" height="301.195" viewBox="0 0 353.628 301.195">
  <g id="Group_18297" data-name="Group 18297" transform="translate(-10330.879 7556.001)">
    <g id="Group_16831" data-name="Group 16831" transform="translate(9952.86 -7922.001)">
      <g id="Group_16774" data-name="Group 16774" transform="translate(378.62 393.796)">
        <g id="Group_16746" data-name="Group 16746" transform="translate(205.69 0)">
          <g id="Group_16745" data-name="Group 16745" transform="translate(0 54.176)">
            <path id="Path_229" data-name="Path 229" d="M527.133,585.541l29.54-39.123,29.54,39.123v151.5" transform="translate(-527.133 -546.418)" fill="rgba(0,0,0,0)" stroke="#e0e2e9" stroke-miterlimit="10" stroke-width="1.202"/>
            <g id="Group_16744" data-name="Group 16744" transform="translate(10.204 45.658)">
              <g id="Group_16740" data-name="Group 16740" transform="translate(0)" opacity="0.81">
                <rect id="Rectangle_5014" data-name="Rectangle 5014" width="7.937" height="8.718" transform="translate(30.016)" fill="rgba(0,0,0,0)" stroke="#e0e2e9" stroke-miterlimit="10" stroke-width="1.202"/>
                <rect id="Rectangle_5015" data-name="Rectangle 5015" width="7.937" height="8.718" transform="translate(15.008)" fill="rgba(0,0,0,0)" stroke="#e0e2e9" stroke-miterlimit="10" stroke-width="1.202"/>
                <rect id="Rectangle_5016" data-name="Rectangle 5016" width="7.937" height="8.718" fill="rgba(0,0,0,0)" stroke="#e0e2e9" stroke-miterlimit="10" stroke-width="1.202"/>
              </g>
              <g id="Group_16741" data-name="Group 16741" transform="translate(0 20.254)" opacity="0.46">
                <rect id="Rectangle_5017" data-name="Rectangle 5017" width="7.937" height="8.718" transform="translate(30.016)" fill="rgba(0,0,0,0)" stroke="#e0e2e9" stroke-miterlimit="10" stroke-width="1.202"/>
                <rect id="Rectangle_5018" data-name="Rectangle 5018" width="7.937" height="8.718" transform="translate(15.008)" fill="rgba(0,0,0,0)" stroke="#e0e2e9" stroke-miterlimit="10" stroke-width="1.202"/>
                <rect id="Rectangle_5019" data-name="Rectangle 5019" width="7.937" height="8.718" fill="rgba(0,0,0,0)" stroke="#e0e2e9" stroke-miterlimit="10" stroke-width="1.202"/>
              </g>
              <g id="Group_16742" data-name="Group 16742" transform="translate(0 41.359)" opacity="0.25">
                <rect id="Rectangle_5020" data-name="Rectangle 5020" width="7.937" height="8.718" transform="translate(30.016)" fill="rgba(0,0,0,0)" stroke="#e0e2e9" stroke-miterlimit="10" stroke-width="1.202"/>
                <rect id="Rectangle_5021" data-name="Rectangle 5021" width="7.937" height="8.718" transform="translate(15.008)" fill="rgba(0,0,0,0)" stroke="#e0e2e9" stroke-miterlimit="10" stroke-width="1.202"/>
                <rect id="Rectangle_5022" data-name="Rectangle 5022" width="7.937" height="8.718" fill="rgba(0,0,0,0)" stroke="#e0e2e9" stroke-miterlimit="10" stroke-width="1.202"/>
              </g>
              <g id="Group_16743" data-name="Group 16743" transform="translate(15.008 59.495)" opacity="0.25">
                <rect id="Rectangle_5023" data-name="Rectangle 5023" width="7.937" height="8.718" transform="translate(15.008)" fill="rgba(0,0,0,0)" stroke="#e0e2e9" stroke-miterlimit="10" stroke-width="1.202"/>
                <rect id="Rectangle_5024" data-name="Rectangle 5024" width="7.937" height="8.718" fill="rgba(0,0,0,0)" stroke="#e0e2e9" stroke-miterlimit="10" stroke-width="1.202"/>
              </g>
            </g>
          </g>
          <path id="Path_230" data-name="Path 230" d="M573.819,719.956V536.145h76.665v207.9" transform="translate(-503.748 -536.145)" fill="rgba(0,0,0,0)" stroke="#e0e2e9" stroke-miterlimit="10" stroke-width="1.202"/>
        </g>
        <g id="Group_16753" data-name="Group 16753" transform="translate(0 105.712)">
          <g id="Group_16752" data-name="Group 16752" transform="translate(59.906 19.461)">
            <path id="Path_251" data-name="Path 251" d="M470.385,709.513v-83.22a52.833,52.833,0,0,0-10.436-31.774h0a11.97,11.97,0,0,0-19.51,0h0A52.835,52.835,0,0,0,430,626.293v83.374" transform="translate(-430.002 -589.486)" fill="rgba(0,0,0,0)" stroke="#e0e2e9" stroke-miterlimit="10" stroke-width="1.202"/>
            <g id="Group_16751" data-name="Group 16751" transform="translate(7.467 23.314)">
              <g id="Group_16747" data-name="Group 16747" transform="translate(0 0)" opacity="0.81">
                <rect id="Rectangle_5026" data-name="Rectangle 5026" width="5.425" height="5.958" fill="rgba(0,0,0,0)" stroke="#e0e2e9" stroke-miterlimit="10" stroke-width="1.202"/>
                <rect id="Rectangle_5027" data-name="Rectangle 5027" width="5.425" height="5.958" transform="translate(10.257)" fill="rgba(0,0,0,0)" stroke="#e0e2e9" stroke-miterlimit="10" stroke-width="1.202"/>
                <rect id="Rectangle_5028" data-name="Rectangle 5028" width="5.425" height="5.958" transform="translate(20.514)" fill="rgba(0,0,0,0)" stroke="#e0e2e9" stroke-miterlimit="10" stroke-width="1.202"/>
              </g>
              <g id="Group_16748" data-name="Group 16748" transform="translate(0 13.842)" opacity="0.46">
                <rect id="Rectangle_5029" data-name="Rectangle 5029" width="5.425" height="5.958" transform="translate(0 0)" fill="rgba(0,0,0,0)" stroke="#e0e2e9" stroke-miterlimit="10" stroke-width="1.202"/>
                <rect id="Rectangle_5030" data-name="Rectangle 5030" width="5.425" height="5.958" transform="translate(10.257 0)" fill="rgba(0,0,0,0)" stroke="#e0e2e9" stroke-miterlimit="10" stroke-width="1.202"/>
                <rect id="Rectangle_5031" data-name="Rectangle 5031" width="5.425" height="5.958" transform="translate(20.514 0)" fill="rgba(0,0,0,0)" stroke="#e0e2e9" stroke-miterlimit="10" stroke-width="1.202"/>
              </g>
              <g id="Group_16749" data-name="Group 16749" transform="translate(0 28.266)" opacity="0.25">
                <rect id="Rectangle_5032" data-name="Rectangle 5032" width="5.425" height="5.958" transform="translate(0 0)" fill="rgba(0,0,0,0)" stroke="#e0e2e9" stroke-miterlimit="10" stroke-width="1.202"/>
                <rect id="Rectangle_5033" data-name="Rectangle 5033" width="5.425" height="5.958" transform="translate(10.257 0)" fill="rgba(0,0,0,0)" stroke="#e0e2e9" stroke-miterlimit="10" stroke-width="1.202"/>
                <rect id="Rectangle_5034" data-name="Rectangle 5034" width="5.425" height="5.958" transform="translate(20.514 0)" fill="rgba(0,0,0,0)" stroke="#e0e2e9" stroke-miterlimit="10" stroke-width="1.202"/>
              </g>
              <g id="Group_16750" data-name="Group 16750" transform="translate(0 40.661)" opacity="0.25">
                <rect id="Rectangle_5035" data-name="Rectangle 5035" width="5.425" height="5.958" transform="translate(0 0)" fill="rgba(0,0,0,0)" stroke="#e0e2e9" stroke-miterlimit="10" stroke-width="1.202"/>
                <rect id="Rectangle_5036" data-name="Rectangle 5036" width="5.425" height="5.958" transform="translate(10.257 0)" fill="rgba(0,0,0,0)" stroke="#e0e2e9" stroke-miterlimit="10" stroke-width="1.202"/>
                <rect id="Rectangle_5037" data-name="Rectangle 5037" width="5.425" height="5.958" transform="translate(20.514 0)" fill="rgba(0,0,0,0)" stroke="#e0e2e9" stroke-miterlimit="10" stroke-width="1.202"/>
              </g>
            </g>
          </g>
          <path id="Path_252" data-name="Path 252" d="M390.088,717.552V577.68h52.4V717.353" transform="translate(-390.088 -577.68)" fill="rgba(0,0,0,0)" stroke="#e0e2e9" stroke-miterlimit="10" stroke-width="1.202"/>
        </g>
        <g id="Group_16760" data-name="Group 16760" transform="translate(4.486 132.924)">
          <path id="Path_253" data-name="Path 253" d="M421.752,584.886v4.681h-4.681v-8.593h4.681Zm-.77-3.143H417.84v3.143h3.142Zm0,3.912H417.84V588.8h3.142Z" transform="translate(-393.227 -580.974)" fill="#e0e2e9"/>
          <path id="Path_254" data-name="Path 254" d="M413.889,584.886v4.681h-4.682v-8.593h4.682Zm-.77-3.143h-3.142v3.143h3.142Zm0,3.912h-3.142V588.8h3.142Z" transform="translate(-393.62 -580.974)" fill="#e0e2e9"/>
          <path id="Path_255" data-name="Path 255" d="M406.241,584.886v4.681H401.56v-8.593h4.681Zm-.77-3.143h-3.142v3.143h3.142Zm0,3.912h-3.142V588.8h3.142Z" transform="translate(-394.001 -580.974)" fill="#e0e2e9"/>
          <path id="Path_256" data-name="Path 256" d="M399.042,580.974v8.593h-4.681v-8.593Zm-3.911,7.823h3.142v-3.141h-3.142Zm0-3.911h3.142v-3.143h-3.142Z" transform="translate(-394.361 -580.974)" fill="#e0e2e9"/>
          <path id="Path_257" data-name="Path 257" d="M421.752,595.9v4.681h-4.681v-8.593h4.681Zm-.77-3.143H417.84V595.9h3.142Zm0,3.911H417.84v3.142h3.142Z" transform="translate(-393.227 -580.424)" fill="#e0e2e9"/>
          <path id="Path_258" data-name="Path 258" d="M413.889,595.9v4.681h-4.682v-8.593h4.682Zm-.77-3.143h-3.142V595.9h3.142Zm0,3.911h-3.142v3.142h3.142Z" transform="translate(-393.62 -580.424)" fill="#e0e2e9"/>
          <path id="Path_259" data-name="Path 259" d="M406.241,595.9v4.681H401.56v-8.593h4.681Zm-.77-3.143h-3.142V595.9h3.142Zm0,3.911h-3.142v3.142h3.142Z" transform="translate(-394.001 -580.424)" fill="#e0e2e9"/>
          <path id="Path_260" data-name="Path 260" d="M399.042,595.9v4.681h-4.681v-8.593h4.681Zm-.769-3.143h-3.142V595.9h3.142Zm0,3.911h-3.142v3.142h3.142Z" transform="translate(-394.361 -580.424)" fill="#e0e2e9"/>
          <path id="Path_261" data-name="Path 261" d="M421.752,606.9v4.681h-4.681v-8.592h4.681Zm-.77-3.142H417.84V606.9h3.142Zm0,3.912H417.84v3.142h3.142Z" transform="translate(-393.227 -579.874)" fill="#e0e2e9"/>
          <path id="Path_262" data-name="Path 262" d="M413.889,606.9v4.681h-4.682v-8.592h4.682Zm-.77-3.142h-3.142V606.9h3.142Zm0,3.912h-3.142v3.142h3.142Z" transform="translate(-393.62 -579.874)" fill="#e0e2e9"/>
          <path id="Path_263" data-name="Path 263" d="M406.241,606.9v4.681H401.56v-8.592h4.681Zm-.77-3.142h-3.142V606.9h3.142Zm0,3.912h-3.142v3.142h3.142Z" transform="translate(-394.001 -579.874)" fill="#e0e2e9"/>
          <path id="Path_264" data-name="Path 264" d="M399.042,606.9v4.681h-4.681v-8.592h4.681Zm-.769-3.142h-3.142V606.9h3.142Zm0,3.912h-3.142v3.142h3.142Z" transform="translate(-394.361 -579.874)" fill="#e0e2e9"/>
          <path id="Path_265" data-name="Path 265" d="M421.752,617.915V622.6h-4.681V614h4.681Zm-.77-3.142H417.84v3.142h3.142Zm0,3.911H417.84v3.142h3.142Z" transform="translate(-393.227 -579.325)" fill="#e0e2e9"/>
          <path id="Path_266" data-name="Path 266" d="M413.889,617.915V622.6h-4.682V614h4.682Zm-.77-3.142h-3.142v3.142h3.142Zm0,3.911h-3.142v3.142h3.142Z" transform="translate(-393.62 -579.325)" fill="#e0e2e9"/>
          <path id="Path_267" data-name="Path 267" d="M406.241,617.915V622.6H401.56V614h4.681Zm-.77-3.142h-3.142v3.142h3.142Zm0,3.911h-3.142v3.142h3.142Z" transform="translate(-394.001 -579.325)" fill="#e0e2e9"/>
          <path id="Path_268" data-name="Path 268" d="M399.042,617.915V622.6h-4.681V614h4.681Zm-.769-3.142h-3.142v3.142h3.142Zm0,3.911h-3.142v3.142h3.142Z" transform="translate(-394.361 -579.325)" fill="#e0e2e9"/>
          <path id="Path_269" data-name="Path 269" d="M421.752,628.924v4.682h-4.681v-8.593h4.681Zm-.77-3.141H417.84v3.141h3.142Zm0,3.911H417.84v3.142h3.142Z" transform="translate(-393.227 -578.775)" fill="#e0e2e9"/>
          <path id="Path_270" data-name="Path 270" d="M413.889,628.924v4.682h-4.682v-8.593h4.682Zm-.77-3.141h-3.142v3.141h3.142Zm0,3.911h-3.142v3.142h3.142Z" transform="translate(-393.62 -578.775)" fill="#e0e2e9"/>
          <path id="Path_271" data-name="Path 271" d="M406.241,628.924v4.682H401.56v-8.593h4.681Zm-.77-3.141h-3.142v3.141h3.142Zm0,3.911h-3.142v3.142h3.142Z" transform="translate(-394.001 -578.775)" fill="#e0e2e9"/>
          <path id="Path_272" data-name="Path 272" d="M399.042,628.924v4.682h-4.681v-8.593h4.681Zm-.769-3.141h-3.142v3.141h3.142Zm0,3.911h-3.142v3.142h3.142Z" transform="translate(-394.361 -578.775)" fill="#e0e2e9"/>
        </g>
        <g id="Group_16761" data-name="Group 16761" transform="translate(304.126 5.063)">
          <path id="Path_231" data-name="Path 231" d="M578.9,546.691v6.848h6.849V540.967H578.9Zm1.126-4.6h4.6v4.6h-4.6Zm0,5.723h4.6v4.6h-4.6Z" transform="translate(-578.896 -540.967)" fill="#e0e2e9"/>
          <path id="Path_232" data-name="Path 232" d="M590.4,546.691v6.848h6.849V540.967H590.4Zm1.125-4.6h4.6v4.6h-4.6Zm0,5.723h4.6v4.6h-4.6Z" transform="translate(-578.321 -540.967)" fill="#e0e2e9"/>
          <path id="Path_233" data-name="Path 233" d="M601.592,546.691v6.848h6.849V540.967h-6.849Zm1.126-4.6h4.6v4.6h-4.6Zm0,5.723h4.6v4.6h-4.6Z" transform="translate(-577.763 -540.967)" fill="#e0e2e9"/>
          <path id="Path_234" data-name="Path 234" d="M612.125,540.967v12.572h6.849V540.967Zm5.723,11.448h-4.6v-4.6h4.6Zm0-5.723h-4.6v-4.6h4.6Z" transform="translate(-577.237 -540.967)" fill="#e0e2e9"/>
          <path id="Path_235" data-name="Path 235" d="M578.9,562.8v6.849h6.849V557.077H578.9Zm1.126-4.6h4.6v4.6h-4.6Zm0,5.722h4.6v4.6h-4.6Z" transform="translate(-578.896 -540.162)" fill="#e0e2e9"/>
          <path id="Path_236" data-name="Path 236" d="M590.4,562.8v6.849h6.849V557.077H590.4Zm1.125-4.6h4.6v4.6h-4.6Zm0,5.722h4.6v4.6h-4.6Z" transform="translate(-578.321 -540.162)" fill="#e0e2e9"/>
          <path id="Path_237" data-name="Path 237" d="M601.592,562.8v6.849h6.849V557.077h-6.849Zm1.126-4.6h4.6v4.6h-4.6Zm0,5.722h4.6v4.6h-4.6Z" transform="translate(-577.763 -540.162)" fill="#e0e2e9"/>
          <path id="Path_238" data-name="Path 238" d="M612.125,562.8v6.849h6.849V557.077h-6.849Zm1.126-4.6h4.6v4.6h-4.6Zm0,5.722h4.6v4.6h-4.6Z" transform="translate(-577.237 -540.162)" fill="#e0e2e9"/>
          <path id="Path_239" data-name="Path 239" d="M578.9,578.909v6.849h6.849V573.186H578.9Zm1.126-4.6h4.6v4.6h-4.6Zm0,5.724h4.6v4.6h-4.6Z" transform="translate(-578.896 -539.358)" fill="#e0e2e9"/>
          <path id="Path_240" data-name="Path 240" d="M590.4,578.909v6.849h6.849V573.186H590.4Zm1.125-4.6h4.6v4.6h-4.6Zm0,5.724h4.6v4.6h-4.6Z" transform="translate(-578.321 -539.358)" fill="#e0e2e9"/>
          <path id="Path_241" data-name="Path 241" d="M601.592,578.909v6.849h6.849V573.186h-6.849Zm1.126-4.6h4.6v4.6h-4.6Zm0,5.724h4.6v4.6h-4.6Z" transform="translate(-577.763 -539.358)" fill="#e0e2e9"/>
          <path id="Path_242" data-name="Path 242" d="M612.125,578.909v6.849h6.849V573.186h-6.849Zm1.126-4.6h4.6v4.6h-4.6Zm0,5.724h4.6v4.6h-4.6Z" transform="translate(-577.237 -539.358)" fill="#e0e2e9"/>
          <path id="Path_243" data-name="Path 243" d="M578.9,595.019v6.848h6.849V589.3H578.9Zm1.126-4.6h4.6v4.6h-4.6Zm0,5.724h4.6v4.6h-4.6Z" transform="translate(-578.896 -538.554)" fill="#e0e2e9"/>
          <path id="Path_244" data-name="Path 244" d="M590.4,595.019v6.848h6.849V589.3H590.4Zm1.125-4.6h4.6v4.6h-4.6Zm0,5.724h4.6v4.6h-4.6Z" transform="translate(-578.321 -538.554)" fill="#e0e2e9"/>
          <path id="Path_245" data-name="Path 245" d="M601.592,595.019v6.848h6.849V589.3h-6.849Zm1.126-4.6h4.6v4.6h-4.6Zm0,5.724h4.6v4.6h-4.6Z" transform="translate(-577.763 -538.554)" fill="#e0e2e9"/>
          <path id="Path_246" data-name="Path 246" d="M612.125,595.019v6.848h6.849V589.3h-6.849Zm1.126-4.6h4.6v4.6h-4.6Zm0,5.724h4.6v4.6h-4.6Z" transform="translate(-577.237 -538.554)" fill="#e0e2e9"/>
          <path id="Path_247" data-name="Path 247" d="M578.9,611.128v6.849h6.849V605.4H578.9Zm1.126-4.6h4.6v4.6h-4.6Zm0,5.722h4.6v4.6h-4.6Z" transform="translate(-578.896 -537.749)" fill="#e0e2e9"/>
          <path id="Path_248" data-name="Path 248" d="M590.4,611.128v6.849h6.849V605.4H590.4Zm1.125-4.6h4.6v4.6h-4.6Zm0,5.722h4.6v4.6h-4.6Z" transform="translate(-578.321 -537.749)" fill="#e0e2e9"/>
          <path id="Path_249" data-name="Path 249" d="M601.592,611.128v6.849h6.849V605.4h-6.849Zm1.126-4.6h4.6v4.6h-4.6Zm0,5.722h4.6v4.6h-4.6Z" transform="translate(-577.763 -537.749)" fill="#e0e2e9"/>
          <path id="Path_250" data-name="Path 250" d="M612.125,611.128v6.849h6.849V605.4h-6.849Zm1.126-4.6h4.6v4.6h-4.6Zm0,5.722h4.6v4.6h-4.6Z" transform="translate(-577.237 -537.749)" fill="#e0e2e9"/>
        </g>
      </g>
      <g id="Group_16793" data-name="Group 16793" transform="translate(463.949 366.587)">
        <g id="Group_16775" data-name="Group 16775" transform="translate(0.042 91.518)">
          <path id="Path_338" data-name="Path 338" d="M596.035,488.615s-6.47,23.128,5.563,31.77c-.147.715-11.478-.681-11.478-.681l.618,12.481s-13.077,5.086-19.16,5.145-12.124-5.776-13.614-8.745-27.717,1.737-25.427,21.193c0,0,16.719,17.514,35.186,12.027,0,0,12.6-4.973,7.607.861s-33.6,26.1-36.908,66.372c0,0-23.916-14.449-25.13-58.92S524.884,507.384,538,493.478c0,0,9.932-6.974,11.466-4.863s11.594,10.3,14.931,9.726,8.328-.344,6.769-4.255-2.787-2.124-2.219-5.064.695-3.276,4.181-2.94S596.035,488.615,596.035,488.615Z" transform="translate(-513.214 -448.53)" fill="#071450"/>
          <ellipse id="Ellipse_297" data-name="Ellipse 297" cx="1.778" cy="1.512" rx="1.778" ry="1.512" transform="translate(54.943 4.645) rotate(-124.684)" fill="#071450"/>
        </g>
        <g id="Group_16776" data-name="Group 16776" transform="translate(16.082 3.134)">
          <path id="Path_339" data-name="Path 339" d="M449.291,579.033c3.006,2.924,6.057,5.94,9.087,9h30.711a4.5,4.5,0,1,0,0-9Z" transform="translate(-325.367 -313.617)" fill="#00c4dd"/>
          <path id="Path_350" data-name="Path 350" d="M537.534,606.23a3.9,3.9,0,0,0,5.717.376,11.157,11.157,0,0,1,1.88-1.339c-3.84-12.116,8.487-20.427,8.817-20.638-1.69.6-3.3,1.174-4.8,1.737-1.116.411-2.172.811-3.171,1.186a14.693,14.693,0,0,0-8.124,7.618C536.547,598,535.3,603.577,537.534,606.23Z" transform="translate(-516.24 -310.819)" fill="#00c4dd"/>
          <path id="Path_354" data-name="Path 354" d="M491.006,423.221a19.275,19.275,0,1,0,6.141-16.13A24.257,24.257,0,0,0,491.006,423.221Z" transform="translate(-430.49 -402.089)" fill="#00c4dd"/>
          <path id="Path_365" data-name="Path 365" d="M545.425,490.171l.036.124a10.118,10.118,0,0,0,13.245,5.4,9.912,9.912,0,0,0,4.029-3.084,8.527,8.527,0,0,0,.823-1.2,1.261,1.261,0,0,0-.943-1.84,10.259,10.259,0,0,1-6.423-3.086,5.463,5.463,0,0,1-1.029-1.9,5.276,5.276,0,0,1,1-5.177,3.4,3.4,0,0,1,.671-.5c.671-.422,1.647-.816,2.091-.385a13.663,13.663,0,0,1-4.167-7.738,12.249,12.249,0,0,1,.354-5.505,3.54,3.54,0,0,0,5.166,1.747,5.064,5.064,0,0,0,2.4-5.734c.024.021.042.028.054.055,3.573,3.064,8.164.808,10.512-2.6a10.262,10.262,0,0,0,1.695-3.971c-1.149-4.455-6.429-6.586-10.494-5.169-1.4-2.483-4.651-4.233-7.248-3.141a5.471,5.471,0,0,0-3.327,4.457,3.821,3.821,0,0,0-.024.457c-1.787-.947-4.294-1.7-6.143-.92a6.773,6.773,0,0,0-4.123,6.674,7.876,7.876,0,0,0-4.461.549,8.114,8.114,0,0,0-4.677,6.2,6.935,6.935,0,0,0,.382,1.167,7.791,7.791,0,0,0,2.142,2.926A5.238,5.238,0,0,0,535.8,469.6a5.4,5.4,0,0,0-.282,4.1l.006.013c.042.137.1.267.153.4a5.384,5.384,0,0,0,2.009,2.427,8.053,8.053,0,0,0-2.315,7.671,8.788,8.788,0,0,0,.425,1.3A8.088,8.088,0,0,0,545.425,490.171Z" transform="translate(-534.446 -380.061)" fill="#00c4dd"/>
        </g>
        <g id="Group_16773" data-name="Group 16773">
          <path id="Path_357" data-name="Path 357" d="M527.918,450.424a4.763,4.763,0,0,1,.591-2.211c.587-.834,1.508.089,1.928.618,2.307,2.905,3.249,6.63,4.182,10.146a72.709,72.709,0,0,1,1.887,9.826,170.189,170.189,0,0,1,.831,19.138,173.231,173.231,0,0,1-.961,21.367c-1.233,12.045-5.612,24.126-18.279,27.87-9.2,2.736-20.005,2.607-30.2,1.573" transform="translate(-410.952 -376.061)" fill="#fff" stroke="#6a7296" stroke-miterlimit="10" stroke-width="1.174"/>
          <path id="Path_340" data-name="Path 340" d="M449.29,574.353a201.9,201.9,0,0,1,28.833-33.469c2.406-2.255,4.778-4.4,7.1-6.411v-.01h.012c4.778-4.157,9.321-7.773,13.4-10.826a19.525,19.525,0,0,1,24.1.494,19.106,19.106,0,0,1,4.39,5.06l48.075,79.5h16.423a4.5,4.5,0,1,1,0,9H560.912c-3.029-3.065-6.081-6.081-9.087-9-18-17.515-34.9-32.073-41.43-37.6" transform="translate(-411.82 -340.143)" fill="none" stroke="#6a7296" stroke-miterlimit="10" stroke-width="1.174"/>
          <path id="Path_341" data-name="Path 341" d="M523.23,529.554" transform="translate(-449.827 -335.223)" fill="none" stroke="#6a7296" stroke-miterlimit="10" stroke-width="1.174"/>
          <path id="Path_342" data-name="Path 342" d="M527.133,526.965a56.791,56.791,0,0,0-6.747-30.549" transform="translate(-449.566 -351.792)" fill="none" stroke="#6a7296" stroke-miterlimit="10" stroke-width="1.174"/>
          <path id="Path_343" data-name="Path 343" d="M498.224,508.265c6.258,26.028,26.814,16.084,26.814,16.084l7.96-2.783,18.021-6.281a9.48,9.48,0,0,1,8.98.516c2.325,1.5,7.667,7.808,7.854,14.052" transform="translate(-456.942 -345.868)" fill="none" stroke="#6a7296" stroke-miterlimit="10" stroke-width="1.174"/>
          <path id="Path_344" data-name="Path 344" d="M606.079,578.861q-1.53,4.473-3.169,8.477c-24.477,59.862-66.882,44.94-66.882,44.94-37.473-18.184-38.66-86.829-19.418-123.657.1-.222.224-.433.341-.657,3.592-6.716,8.347-12.867,14.733-16.859a30.683,30.683,0,0,1,5.776-2.794c1.163-.409,2.36-.774,3.6-1.091" transform="translate(-504.337 -356.39)" fill="none" stroke="#6a7296" stroke-miterlimit="10" stroke-width="1.174"/>
          <path id="Path_345" data-name="Path 345" d="M548.2,491.446a179.666,179.666,0,0,0-26.169-4.378c-4.437-.482-9.474-.917-14.616-1.022" transform="translate(-451.067 -356.977)" fill="none" stroke="#6a7296" stroke-miterlimit="10" stroke-width="1.174"/>
          <path id="Path_346" data-name="Path 346" d="M510.977,467.554s1.572-9.106-2.285-12.5c-1.719-1.509-2.019-3.47-2.4-5.589-.518-2.878-3.562-4.1-5.436-1.539-1.692,2.307-1.122,6.491-1.122,9.141" transform="translate(-402.507 -376.733)" fill="none" stroke="#6a7296" stroke-miterlimit="10" stroke-width="1.174"/>
          <path id="Path_347" data-name="Path 347" d="M508.394,464.139s4.38.141,3.711-9.333l0-.024c-.111-1.5-1.224-3.9-2.7-4.19l-1.141-.225a3.758,3.758,0,0,1-3.029-3.685V436.131a3.736,3.736,0,0,0-2.9-3.711,3.636,3.636,0,0,0-4.357,3.555l-.093,86.382" transform="translate(-400.758 -383.826)" fill="none" stroke="#6a7296" stroke-miterlimit="10" stroke-width="1.174"/>
          <path id="Path_348" data-name="Path 348" d="M494.178,461.142c7.7.915,8.289-8.676,8.184-12.867.011-.024,0-.036,0-.048" transform="translate(-385.392 -375.887)" fill="none" stroke="#6a7296" stroke-miterlimit="10" stroke-width="1.174"/>
          <path id="Path_349" data-name="Path 349" d="M497.812,451.069s.923,12.3-6.8,5.93" transform="translate(-376.111 -374.466)" fill="none" stroke="#6a7296" stroke-miterlimit="10" stroke-width="1.174"/>
          <path id="Path_351" data-name="Path 351" d="M532.206,501.049c-8.965,12.726-2.28,30.477,6.753,41.193,12.3,14.589,30.105,16.116,46.933,7.974" transform="translate(-519.592 -349.476)" fill="none" stroke="#6a7296" stroke-miterlimit="10" stroke-width="1.174"/>
          <path id="Path_352" data-name="Path 352" d="M537.082,478.978l-3.2,16.472-.654,3.4" transform="translate(-478.674 -360.511)" fill="none" stroke="#6a7296" stroke-miterlimit="10" stroke-width="1.174"/>
          <path id="Path_353" data-name="Path 353" d="M553.034,489.82c2.654,2.593,5.072,6.247-.789,7.44-7.83,1.591-16.311-6.711-18.927-9.525" transform="translate(-497.589 -356.133)" fill="none" stroke="#6a7296" stroke-miterlimit="10" stroke-width="1.174"/>
          <g id="Group_16772" data-name="Group 16772" transform="translate(36.148 264.064)">
            <path id="Path_355" data-name="Path 355" d="M582.447,579.706c.727,4.86-2.1,14.03-32.766,15.837-36.641,2.16-55.659,10.3-61.74,14.018a11.154,11.154,0,0,0-1.879,1.339,3.9,3.9,0,0,1-5.716-.376c-2.231-2.654-.987-8.229.316-11.06a14.692,14.692,0,0,1,8.124-7.618c1-.375,2.055-.776,3.169-1.186,1.5-.563,3.111-1.139,4.8-1.737,0-.012,0-.012.012-.012,4.473-1.6,9.522-3.322,14.8-4.989,4.719-1.479,9.615-2.924,14.439-4.179.459-.118.893-.235,1.339-.34a136.642,136.642,0,0,1,17.21-3.358" transform="translate(-479.117 -576.043)" fill="none" stroke="#6a7296" stroke-miterlimit="10" stroke-width="1.174"/>
            <path id="Path_356" data-name="Path 356" d="M524.926,579.041h-.012a52.339,52.339,0,0,0-8.115-1.6" transform="translate(-478.025 -575.342)" fill="none" stroke="#6a7296" stroke-miterlimit="10" stroke-width="1.174"/>
          </g>
          <path id="Path_358" data-name="Path 358" d="M499.818,450.021a3.881,3.881,0,0,0-2.425-3.761c-1.364-.511-3.263-.136-3.224,1.633l0,.062" transform="translate(-382.825 -376.975)" fill="none" stroke="#6a7296" stroke-miterlimit="10" stroke-width="1.174"/>
          <ellipse id="Ellipse_296" data-name="Ellipse 296" cx="24.26" cy="24.26" rx="24.26" ry="24.26" transform="translate(76.602)" fill="none" stroke="#6a7296" stroke-miterlimit="10" stroke-width="1.174"/>
          <path id="Path_359" data-name="Path 359" d="M506.214,585.026c-1.272.015-69.493,0-69.493,0" transform="translate(-303.046 -307.487)" fill="none" stroke="#6a7296" stroke-miterlimit="10" stroke-width="1.174"/>
          <path id="Path_360" data-name="Path 360" d="M585.329,585.788H539.507" transform="translate(-536.341 -307.106)" fill="none" stroke="#6a7296" stroke-miterlimit="10" stroke-width="1.174"/>
          <path id="Path_361" data-name="Path 361" d="M525.663,415a5.019,5.019,0,0,0-2.231,3.758c0,1.6,1.138,3.1,3.17,4.437" transform="translate(-453.502 -392.499)" fill="none" stroke="#6a7296" stroke-miterlimit="10" stroke-width="1.174"/>
          <path id="Path_362" data-name="Path 362" d="M510.33,423.66c1.3.176,2.652.329,4.038.446" transform="translate(-421.615 -388.17)" fill="none" stroke="#6a7296" stroke-miterlimit="10" stroke-width="1.174"/>
          <path id="Path_363" data-name="Path 363" d="M511.774,424.051c-1.984.129-4.05.2-6.151.2-1.574,0-3.123-.036-4.638-.117" transform="translate(-405.004 -387.974)" fill="none" stroke="#6a7296" stroke-miterlimit="10" stroke-width="1.174"/>
          <path id="Path_364" data-name="Path 364" d="M503.228,415.473a4.46,4.46,0,0,1,1.432,3.053c0,1.972-1.749,3.792-4.755,5.354-3.556,1.843-8.91,3.274-15.263,4.038" transform="translate(-373.377 -392.263)" fill="none" stroke="#6a7296" stroke-miterlimit="10" stroke-width="1.174"/>
          <g id="Group_16773-2" data-name="Group 16773" transform="translate(15.868 66.081)">
            <path id="Path_367" data-name="Path 367" d="M541.534,455.8" transform="translate(-511.455 -438.183)" fill="none" stroke="#6a7296" stroke-miterlimit="10" stroke-width="1.439"/>
            <path id="Path_368" data-name="Path 368" d="M540.126,459.151s-5.1,2.747-4.02,7.695" transform="translate(-501.678 -436.506)" fill="none" stroke="#6a7296" stroke-miterlimit="10" stroke-width="1.439"/>
            <path id="Path_369" data-name="Path 369" d="M536.553,473.224a10.574,10.574,0,0,0,3.666-1.687,1.583,1.583,0,0,0-.115-2.6c-2.012-1.253-4.046-2.472-6.146-3.569a1.593,1.593,0,0,1-.737-.6A36.8,36.8,0,0,0,527.7,455.6" transform="translate(-490.016 -438.283)" fill="none" stroke="#6a7296" stroke-miterlimit="10" stroke-width="1.439"/>
            <path id="Path_370" data-name="Path 370" d="M548.618,479.7c.45,1.131-.486,11.085-.574,21.55a.109.109,0,0,1,.008.048c.011.215.027.441.031.677" transform="translate(-528.425 -426.228)" fill="none" stroke="#6a7296" stroke-linecap="round" stroke-linejoin="round" stroke-width="1.439"/>
            <path id="Path_371" data-name="Path 371" d="M542.38,466.884s3.369,11.826-1.193,16.254-12.756.134-12.756.134" transform="translate(-493.845 -432.639)" fill="none" stroke="#6a7296" stroke-linecap="round" stroke-linejoin="round" stroke-width="1.439"/>
            <path id="Path_372" data-name="Path 372" d="M533.215,470.608a5.623,5.623,0,0,1-4.674,2.631" transform="translate(-483.646 -430.777)" fill="none" stroke="#6a7296" stroke-linecap="round" stroke-linejoin="round" stroke-width="1.439"/>
            <path id="Path_373" data-name="Path 373" d="M541.972,451.685a5.369,5.369,0,0,1-.381-2.742,5.5,5.5,0,0,1,10.531-1.528" transform="translate(-522.069 -444.054)" fill="none" stroke="#6a7296" stroke-linecap="round" stroke-miterlimit="10" stroke-width="1.439"/>
            <path id="Path_374" data-name="Path 374" d="M559.278,456.924a8.16,8.16,0,0,1,.7-7.587c3.651-5.565,13.177-3.414,14.2,3.1a8.826,8.826,0,0,1-1.728,6.321c-2.344,3.411-6.934,5.674-10.5,2.6l-.057-.049a5.063,5.063,0,0,1-2.4,5.734,3.552,3.552,0,0,1-5.17-1.745,13.12,13.12,0,0,0,3.819,13.24c-.648-.6-2.358.459-2.76.886a5.489,5.489,0,0,0,.016,7.068,10.36,10.36,0,0,0,6.426,3.1,1.255,1.255,0,0,1,.945,1.833,10.118,10.118,0,0,1-18.093-1.123l-.036-.125a8.072,8.072,0,0,1-7.74-13.628,5.382,5.382,0,0,1-2.009-2.427,5.488,5.488,0,0,1,1.294-6.132,5.421,5.421,0,0,1,1.646-1.079" transform="translate(-533.442 -443.007)" fill="none" stroke="#6a7296" stroke-linecap="round" stroke-linejoin="round" stroke-width="1.439"/>
            <path id="Path_375" data-name="Path 375" d="M567.855,447.755a5.4,5.4,0,0,0-5.448-.586,6.752,6.752,0,0,0-4.117,6.686c-.014-.2-2.026-.087-2.226-.065a7.839,7.839,0,0,0-2.249.6,8.1,8.1,0,0,0-4.167,10.4,7.825,7.825,0,0,0,2.142,2.926" transform="translate(-549.051 -442.741)" fill="none" stroke="#6a7296" stroke-linecap="square" stroke-linejoin="round" stroke-width="1.439"/>
          </g>
        </g>
      </g>
    </g>
  </g>
</svg>
