<svg id="Group_3" data-name="Group 3" xmlns="http://www.w3.org/2000/svg" xmlns:xlink="http://www.w3.org/1999/xlink" width="285" height="62.584" viewBox="0 0 285 62.584">
  <defs>
    <linearGradient id="linear-gradient" x1="0.453" y1="0.872" x2="0.508" y2="0.038" gradientUnits="objectBoundingBox">
      <stop offset="0" stop-color="#66f5ff"/>
      <stop offset="1" stop-color="#66f5ff" stop-opacity="0"/>
    </linearGradient>
    <linearGradient id="linear-gradient-2" x1="0.421" y1="0.897" x2="0.578" y2="0.032" xlink:href="#linear-gradient"/>
  </defs>
  <g id="Group_1" data-name="Group 1">
    <rect id="Rectangle_2" data-name="Rectangle 2" width="5.223" height="27.195" transform="translate(13.219 37.791) rotate(-45)" fill="#66f5ff"/>
    <rect id="Rectangle_3" data-name="Rectangle 3" width="5.223" height="27.014" transform="translate(7.783 43.482) rotate(-45)" fill="#66f5ff"/>
    <rect id="Rectangle_4" data-name="Rectangle 4" width="5.223" height="20.241" transform="translate(20.504 18.214) rotate(-45)" fill="url(#linear-gradient)"/>
    <path id="Path_1" data-name="Path 1" d="M499.113,541.588l1.219,1.219a12.159,12.159,0,0,0-3.348-10.845l-1.422-1.422a12.147,12.147,0,0,0-17.179,17.179l1.422,1.422-3.693,3.693-1.422-1.422a17.37,17.37,0,0,1,24.565-24.565l1.422,1.422a17.4,17.4,0,0,1,3.416,19.739c-.092.191-.228.449-.338.659l-1.717,3.232-6.616-6.617Z" transform="translate(-461.628 -513.778)" fill="#66f5ff"/>
    <rect id="Rectangle_5" data-name="Rectangle 5" width="5.223" height="31.875" transform="translate(14.515 24.203) rotate(-45)" fill="url(#linear-gradient-2)"/>
    <path id="Path_2" data-name="Path 2" d="M489.135,543.579l.763.763c.449-.449.868-.88,1.144-1.157a20.039,20.039,0,0,0,0-28.313l-1.655-1.656a20.02,20.02,0,0,0-28.313,28.313l1.656,1.656-3.693,3.693-1.655-1.656a25.243,25.243,0,0,1,35.7-35.7l1.656,1.655a25.272,25.272,0,0,1,0,35.7c-.807.806-2.967,3-2.967,3l-1.846,1.871-4.481-4.481Z" transform="translate(-450 -502.142)" fill="#66f5ff"/>
  </g>
  <g id="Group_2" data-name="Group 2" transform="translate(68.72 12.993)">
    <path id="Path_3" data-name="Path 3" d="M644.224,557.341h-18.93c.426,3.445,2.208,4.646,6.427,4.646,3.6,0,5.613-.776,5.963-2.362h6.157c-.425,4.684-4.686,7.084-12.238,7.084-8.824,0-12.815-3.445-12.815-11.035,0-7.316,3.949-10.685,12.74-10.685,8.71,0,12.7,3.135,12.7,10.763Zm-18.854-3.679h12.314c-.119-2.788-1.939-3.948-6.119-3.948C627.578,549.713,625.833,550.718,625.37,553.662Z" transform="translate(-618.787 -540.537)" fill="#fff"/>
    <path id="Path_4" data-name="Path 4" d="M702.162,546.6h6.62l-6.237,20.405H691.438L685.2,546.6h6.583l4.648,15.255h1.12Z" transform="translate(-658.16 -541.494)" fill="#fff"/>
    <path id="Path_5" data-name="Path 5" d="M772.489,557.341H753.555c.425,3.445,2.2,4.646,6.426,4.646,3.6,0,5.613-.776,5.963-2.362H772.1c-.425,4.684-4.686,7.084-12.238,7.084-8.824,0-12.815-3.445-12.815-11.035,0-7.316,3.948-10.685,12.74-10.685,8.71,0,12.7,3.135,12.7,10.763Zm-18.858-3.679h12.314c-.118-2.788-1.939-3.948-6.119-3.948C755.839,549.713,754.094,550.718,753.631,553.662Z" transform="translate(-694.827 -540.537)" fill="#fff"/>
    <path id="Path_6" data-name="Path 6" d="M839.513,546.925c1.2,1.277,1.821,3.407,1.821,6.464v12.662h-6.5V553.584c0-2.362-1.471-3.561-4.454-3.561-3.135,0-4.762,1.664-4.8,4.956v11.073H819.07V545.646h6.507v3.525c1.508-2.982,3.986-4.183,7.859-4.183C836.264,544.989,838.317,545.646,839.513,546.925Z" transform="translate(-737.526 -540.537)" fill="#fff"/>
    <path id="Path_7" data-name="Path 7" d="M893.17,555.921c-1.755,0-2.5-.8-2.5-2.7V543.165H895.6V538.7h-4.932v-4.643H883.96V538.7h-2.515v4.468h2.515v9.547c0,2.427.217,5.435,2.561,6.765,2.99,1.7,10.236.606,10.236.6v-4.3Z" transform="translate(-774.506 -534.054)" fill="#fff"/>
    <path id="Path_8" data-name="Path 8" d="M950.477,557.341H931.543c.425,3.445,2.2,4.646,6.426,4.646,3.6,0,5.613-.776,5.963-2.362h6.157c-.425,4.684-4.686,7.084-12.238,7.084-8.824,0-12.815-3.445-12.815-11.035,0-7.316,3.948-10.685,12.74-10.685,8.71,0,12.7,3.135,12.7,10.763Zm-18.858-3.679h12.314c-.118-2.788-1.939-3.948-6.119-3.948C933.827,549.713,932.082,550.718,931.619,553.662Z" transform="translate(-800.349 -540.537)" fill="#fff"/>
    <path id="Path_9" data-name="Path 9" d="M1016.746,553.352v12.7H1010.2V562.8c-1.584,2.594-4.142,3.909-7.627,3.909-5.533,0-8.361-2.206-8.361-6.27q0-6.621,10.337-6.623a23.879,23.879,0,0,1,5.651.581v-1.045c0-2.44-1.395-3.485-4.488-3.485q-4.128,0-4.417,2.09h-5.963c.232-4.643,3.679-6.968,10.38-6.968C1013.261,544.989,1016.746,547.62,1016.746,553.352Zm-6.545,4.684v-.076a22.186,22.186,0,0,0-5.15-.5c-3.135,0-4.724.773-4.724,2.284,0,1.586,1.475,2.4,4.379,2.4C1008,562.14,1010.163,560.708,1010.2,558.036Z" transform="translate(-841.361 -540.537)" fill="#fff"/>
    <path id="Path_10" data-name="Path 10" d="M1095.453,546.925c1.125,1.277,1.664,3.445,1.664,6.5v12.621h-6.54V553.815c0-2.594-1.2-3.755-3.873-3.755-2.984,0-4.492,1.51-4.492,4.53v11.461h-6.5V553.815c0-2.516-1.319-3.755-3.911-3.755-2.946,0-4.454,1.548-4.492,4.646v11.345H1060.8V545.646h6.507v3.563c1.433-2.828,3.986-4.22,7.59-4.22,4.024,0,6.115,1.392,6.928,4.646,1.4-3.1,4.067-4.646,7.978-4.646C1092.473,544.989,1094.332,545.646,1095.453,546.925Z" transform="translate(-880.838 -540.537)" fill="#fff"/>
  </g>
</svg>
