<svg xmlns="http://www.w3.org/2000/svg" width="22" height="22" viewBox="0 0 22 22">
  <g id="Add" transform="translate(-0.774 -0.76)">
    <path id="Shape" d="M11,22a56.23,56.23,0,0,1-6.225-.344,5.037,5.037,0,0,1-2.962-1.411A4.949,4.949,0,0,1,.368,17.3a54.221,54.221,0,0,1,0-12.609,4.948,4.948,0,0,1,1.445-2.94A5.042,5.042,0,0,1,4.775.343a56.61,56.61,0,0,1,12.45,0,5.04,5.04,0,0,1,2.961,1.411,4.953,4.953,0,0,1,1.446,2.94,54.221,54.221,0,0,1,0,12.609,4.954,4.954,0,0,1-1.446,2.941,5.035,5.035,0,0,1-2.961,1.411A56.23,56.23,0,0,1,11,22ZM5.326,10a1,1,0,1,0,0,2H10v4.663a1,1,0,0,0,2.006,0V12h4.67a1,1,0,1,0,0-2H12V5.337a1,1,0,0,0-2.006,0V10Z" transform="translate(0.774 0.76)" fill="#d4d6e1"/>
  </g>
</svg>
