<svg xmlns="http://www.w3.org/2000/svg" width="15.383" height="13" viewBox="0 0 15.383 13">
  <g id="User-plus" transform="translate(-0.25 -0.75)">
    <path id="Path" d="M2.958,0A2.958,2.958,0,1,0,5.917,2.958,2.958,2.958,0,0,0,2.958,0Z" transform="translate(3.406 0.75)" fill="#fff"/>
    <path id="Path-2" data-name="Path" d="M2.958,0A2.958,2.958,0,0,0,0,2.958V3.9a1.212,1.212,0,0,0,1.017,1.2,31.63,31.63,0,0,0,10.193,0,1.212,1.212,0,0,0,1.017-1.2V2.958A2.958,2.958,0,0,0,9.269,0H9a1.382,1.382,0,0,0-.429.068L7.889.291a5.72,5.72,0,0,1-3.551,0L3.656.068A1.382,1.382,0,0,0,3.227,0Z" transform="translate(0.25 8.244)" fill="#fff"/>
    <path id="Path-3" data-name="Path" d="M2.564,0a.592.592,0,0,1,.592.592V1.972H4.536a.592.592,0,0,1,0,1.183H3.156V4.536a.592.592,0,0,1-1.183,0V3.156H.592a.592.592,0,1,1,0-1.183H1.972V.592A.592.592,0,0,1,2.564,0Z" transform="translate(10.505 2.722)" fill="#fff"/>
  </g>
</svg>
