<svg xmlns="http://www.w3.org/2000/svg" width="18" height="14" viewBox="0 0 18 14">
  <path id="Icon" d="M148.867,524h-6.4a.876.876,0,0,1-.8-.934V510.934a.875.875,0,0,1,.8-.933h6.4a.875.875,0,0,1,.8.933v12.133A.876.876,0,0,1,148.867,524Zm5.05-2h-1.5a.842.842,0,0,1-.75-.909v-8.182a.842.842,0,0,1,.75-.909h1.5a.842.842,0,0,1,.75.909v8.182A.842.842,0,0,1,153.917,522Zm-15,0h-1.5a.842.842,0,0,1-.75-.909v-8.182a.842.842,0,0,1,.75-.909h1.5a.842.842,0,0,1,.75.909v8.182A.842.842,0,0,1,138.917,522Z" transform="translate(-136.667 -510)" fill="#fff"/>
</svg>
