<svg xmlns="http://www.w3.org/2000/svg" width="40" height="40" viewBox="0 0 40 40">
  <g id="Group_17148" data-name="Group 17148" transform="translate(-20 -509)">
    <circle id="logo" cx="20" cy="20" r="20" transform="translate(20 509)" fill="#71cc9b"/>
    <g id="_rss_feed" data-name=" rss_feed" transform="translate(-446 -743)">
      <rect id="Path" width="24" height="24" transform="translate(474 1260)" fill="#fff" opacity="0"/>
      <path id="Icon" d="M492.06,1280a1.4,1.4,0,0,1-1.4-1.28,12.755,12.755,0,0,0-11.39-11.39,1.4,1.4,0,0,1-1.27-1.4,1.433,1.433,0,0,1,1.41-1.418,1.392,1.392,0,0,1,.15.008,15.576,15.576,0,0,1,13.92,13.92,1.429,1.429,0,0,1-1.42,1.56Zm-5.69,0a1.444,1.444,0,0,1-1.4-1.23,7.1,7.1,0,0,0-5.739-5.74,1.442,1.442,0,0,1-1.23-1.4,1.415,1.415,0,0,1,1.373-1.418,1.325,1.325,0,0,1,.217.018,9.9,9.9,0,0,1,8.19,8.18,1.352,1.352,0,0,1-.316,1.086A1.44,1.44,0,0,1,486.37,1280Zm-6.19,0a2.18,2.18,0,1,1,2.181-2.18A2.182,2.182,0,0,1,480.18,1280Z" transform="translate(1 -0.812)" fill="#fff"/>
    </g>
  </g>
</svg>
