<svg xmlns="http://www.w3.org/2000/svg" width="14.4" height="16" viewBox="0 0 14.4 16">
  <path id="Icon" d="M455.8,215H444.6a1.6,1.6,0,0,1-1.6-1.6V202.2a1.6,1.6,0,0,1,1.6-1.6h3.344a2.39,2.39,0,0,1,4.512,0H455.8a1.6,1.6,0,0,1,1.6,1.6v11.2A1.6,1.6,0,0,1,455.8,215Zm-9.276-7.2a.8.8,0,0,0-.564,1.362l2.072,2.072a.8.8,0,0,0,.567.234.776.776,0,0,0,.561-.234l5.272-5.272a.8.8,0,1,0-1.128-1.128l-4.7,4.7-1.512-1.5A.792.792,0,0,0,446.524,207.8Zm3.676-7.2a.8.8,0,1,0,.8.8A.8.8,0,0,0,450.2,200.6Z" transform="translate(-443 -199)" fill="#fff"/>
</svg>
