<svg xmlns="http://www.w3.org/2000/svg" width="22" height="22" viewBox="0 0 22 22">
  <g id="Explore" transform="translate(-0.25 -0.25)">
    <path id="Shape" d="M11,22A11,11,0,1,1,22,11,11.012,11.012,0,0,1,11,22ZM14.231,4.128h0a1.236,1.236,0,0,0-.792.291l-3.885,3.2A6.281,6.281,0,0,0,7.348,11.44L6.522,16.4a1.228,1.228,0,0,0,.272,1.012,1.3,1.3,0,0,0,.976.456,1.236,1.236,0,0,0,.791-.29l3.885-3.2a6.287,6.287,0,0,0,2.207-3.822L15.478,5.6a1.228,1.228,0,0,0-.272-1.012,1.3,1.3,0,0,0-.975-.455Z" transform="translate(0.25 0.25)" fill="#d4d6e1"/>
    <path id="Path" d="M0,1.886A1.886,1.886,0,1,1,1.886,3.772,1.886,1.886,0,0,1,0,1.886Z" transform="translate(9.364 9.364)" fill="#d4d6e1"/>
  </g>
</svg>
