<svg xmlns="http://www.w3.org/2000/svg" width="18" height="18" viewBox="0 0 18 18">
  <g id="Group_16824" data-name="Group 16824" transform="translate(-63 -13)">
    <g id="Group_16815" data-name="Group 16815" transform="translate(63 17.861)">
      <path id="Path_494" data-name="Path 494" d="M66.989,25.228l-.627,2.339-2.29.048a9.016,9.016,0,0,1-.066-8.4h0l2.039.374.893,2.026a5.37,5.37,0,0,0,.05,3.616Z" transform="translate(-63 -19.211)" fill="#fbbb00"/>
    </g>
    <g id="Group_16816" data-name="Group 16816" transform="translate(72.198 20.319)">
      <path id="Path_495" data-name="Path 495" d="M83.4,22.352a9,9,0,0,1-3.208,8.7h0l-2.568-.131-.363-2.269a5.364,5.364,0,0,0,2.308-2.739H74.753v-3.56H83.4Z" transform="translate(-74.753 -22.352)" fill="#518ef8"/>
    </g>
    <g id="Group_16817" data-name="Group 16817" transform="translate(64.073 23.878)">
      <path id="Path_496" data-name="Path 496" d="M77.932,32.04h0a9,9,0,0,1-13.562-2.753L67.287,26.9A5.353,5.353,0,0,0,75,29.64Z" transform="translate(-64.371 -26.899)" fill="#28b446"/>
    </g>
    <g id="Group_16818" data-name="Group 16818" transform="translate(64.007 13)">
      <path id="Path_497" data-name="Path 497" d="M78.024,15.072l-2.916,2.387a5.352,5.352,0,0,0-7.89,2.8l-2.932-2.4h0a9,9,0,0,1,13.738-2.789Z" transform="translate(-64.286 -13)" fill="#f14336"/>
    </g>
  </g>
</svg>
