<svg xmlns="http://www.w3.org/2000/svg" width="18.946" height="22" viewBox="0 0 18.946 22">
  <g id="pNtoRJ.tif" transform="translate(-696.296 -373.392)">
    <g id="Group_17002" data-name="Group 17002" transform="translate(696.296 373.392)">
      <path id="Path_36562" data-name="Path 36562" d="M710.062,392.1a28.042,28.042,0,0,0-8.574.01,20.688,20.688,0,0,1-2.928.288,2.258,2.258,0,0,1-2.137-1.423,1.914,1.914,0,0,1,.232-1.8l.016-.025a9.651,9.651,0,0,0,1.616-5.364q0-1.49,0-2.982a7.485,7.485,0,0,1,14.852-1.256,7.241,7.241,0,0,1,.117,1.371q0,1.5,0,3a9.215,9.215,0,0,0,1.551,5.124l.026.038a2.169,2.169,0,0,1,.216,2.14,2.022,2.022,0,0,1-1.955,1.18A21.7,21.7,0,0,1,710.062,392.1Z" transform="translate(-696.296 -373.392)" fill="#d4d6e1"/>
      <path id="Path_36563" data-name="Path 36563" d="M705.387,394.938a5.338,5.338,0,0,1-3.561-1.312.43.43,0,0,1,.314-.725q3.518,0,7.037,0a.43.43,0,0,1,.3.738A6.1,6.1,0,0,1,705.387,394.938Z" transform="translate(-696.17 -372.938)" fill="#d4d6e1"/>
    </g>
  </g>
</svg>
