<svg xmlns="http://www.w3.org/2000/svg" width="15" height="16" viewBox="0 0 15 16">
  <path id="Icon" d="M218.2,436H206.293a1.574,1.574,0,0,1-1.542-1.6l.007-12.8A1.574,1.574,0,0,1,206.3,420h8.155a1.528,1.528,0,0,1,1.093.464l3.745,3.864a1.626,1.626,0,0,1,.457,1.136V434.4A1.578,1.578,0,0,1,218.2,436Zm-8.754-5.877a.555.555,0,0,0-.329.108.582.582,0,0,0-.238.374.62.62,0,0,0,.091.457,3.832,3.832,0,0,0,3.194,1.736,4,4,0,0,0,0-8,3.836,3.836,0,0,0-3.256,1.84L207.9,425.6v2.8a.39.39,0,0,0,.387.4H211l-1.248-1.288A2.687,2.687,0,0,1,212.164,426a2.8,2.8,0,0,1-.008,5.6,2.683,2.683,0,0,1-2.233-1.216A.57.57,0,0,0,209.447,430.123Z" transform="translate(-204.751 -419.999)" fill="#fff"/>
</svg>
