<svg xmlns="http://www.w3.org/2000/svg" width="15.16" height="14.968" viewBox="0 0 15.16 14.968">
  <path id="Subtraction_7" data-name="Subtraction 7" d="M-7570.59-190.031a.745.745,0,0,1-.53-.22l-2.917-2.724a6.762,6.762,0,0,1-4.213,1.476,6.706,6.706,0,0,1-4.772-1.976A6.706,6.706,0,0,1-7585-198.25a6.706,6.706,0,0,1,1.978-4.774A6.709,6.709,0,0,1-7578.25-205a6.708,6.708,0,0,1,4.772,1.976,6.736,6.736,0,0,1,.5,8.988l2.917,2.724a.751.751,0,0,1,0,1.06A.746.746,0,0,1-7570.59-190.031Zm-7.659-13.057a4.811,4.811,0,0,0-3.422,1.416,4.846,4.846,0,0,0,0,6.842,4.807,4.807,0,0,0,3.421,1.418,4.807,4.807,0,0,0,3.417-1.414l0,0h0l0,0a4.843,4.843,0,0,0,0-6.838A4.806,4.806,0,0,0-7578.25-203.088Z" transform="translate(7585 205)" fill="#fff"/>
</svg>
